<svg xmlns="http://www.w3.org/2000/svg" viewBox="0 0 1367 387.62"><defs><style>.cls-1{fill:#ed8185;}.cls-2{fill:#f99;stroke:#f99;stroke-miterlimit:10;}</style></defs><g id="Camada_2" data-name="Camada 2"><g id="Camada_4" data-name="Camada 4"><path class="cls-1" d="M1,83S165,99.09,294,66.09s242-75,419-52,220,109,374,142,280-51.86,280-51.86V370.38s-148.93,38.78-268.71,0S832,227.59,684.5,218.59c-66.45-4.05-144,3-379,90S1,339.52,1,339.52Z"/><path class="cls-2" d="M.5,76s164,16.07,293-16.93,242-75,419-52,220,109,374,142,280-51.86,280-51.86V363.38s-148.93,38.78-268.71,0S831.5,220.59,684,211.59c-66.45-4.05-144,3-379,90S.5,332.52.5,332.52Z"/></g></g></svg>