<svg xmlns="http://www.w3.org/2000/svg" viewBox="0 0 305.77 379.28"><defs><style>.cls-1,.cls-2,.cls-25,.cls-26{fill:none;}.cls-1,.cls-2,.cls-21,.cls-22,.cls-23,.cls-25,.cls-26{stroke:#000;}.cls-1,.cls-10,.cls-11,.cls-12,.cls-13,.cls-14,.cls-15,.cls-16,.cls-17,.cls-18,.cls-19,.cls-2,.cls-20,.cls-21,.cls-22,.cls-23,.cls-24,.cls-25,.cls-26,.cls-3,.cls-4,.cls-5,.cls-6,.cls-7,.cls-8,.cls-9{stroke-miterlimit:10;}.cls-1{stroke-width:5.58px;}.cls-2{stroke-width:5.62px;}.cls-3{fill:#c2000c;stroke-width:5.1px;}.cls-10,.cls-11,.cls-12,.cls-13,.cls-14,.cls-15,.cls-16,.cls-17,.cls-18,.cls-19,.cls-20,.cls-3,.cls-4,.cls-5,.cls-6,.cls-7,.cls-8,.cls-9{stroke:#603813;}.cls-10,.cls-11,.cls-12,.cls-13,.cls-14,.cls-15,.cls-16,.cls-17,.cls-18,.cls-19,.cls-20,.cls-4,.cls-5,.cls-6,.cls-7,.cls-8,.cls-9{fill:#ffffb3;}.cls-4{stroke-width:2.26px;}.cls-5{stroke-width:4.21px;}.cls-6{stroke-width:3.94px;}.cls-7{stroke-width:3.93px;}.cls-8{stroke-width:3.37px;}.cls-9{stroke-width:3.44px;}.cls-10{stroke-width:3.52px;}.cls-11{stroke-width:2.74px;}.cls-12{stroke-width:3.31px;}.cls-13{stroke-width:2.39px;}.cls-14{stroke-width:3.09px;}.cls-15{stroke-width:2.95px;}.cls-16{stroke-width:3.1px;}.cls-17{stroke-width:4.05px;}.cls-18{stroke-width:3.1px;}.cls-19{stroke-width:2.73px;}.cls-20{stroke-width:2.91px;}.cls-21{fill:#fff;}.cls-21,.cls-22{stroke-width:2.78px;}.cls-23{stroke-width:1.39px;}.cls-24{fill:#39b54a;stroke:#006837;}.cls-24,.cls-25{stroke-width:5px;}.cls-26{stroke-width:5.54px;}</style></defs><g id="Camada_2" data-name="Camada 2"><g id="Camada_7" data-name="Camada 7"><path class="cls-1" d="M122,324.08c8.11-11-19.62,22.95-15.22,49h0c-16.22,8-45.64-1-32.45,2"/><path class="cls-2" d="M126.45,322.56c-8.2-11,19.84,22.95,15.39,49h0c16.41,8,46.15-1,32.82,2"/><path class="cls-3" d="M33.25,314C-20,232.93,67.75,64.67,131.67,65.68c66.1,1,148.79,183.75,81.66,257.07-24.62,26.89-76.2,46.52-121.7,33.58C89.43,355.7,53.56,345,33.25,314Z"/><path class="cls-4" d="M47,151.15c1.67,0,2.36-3.85.92-10.12-3.87.68-5.43,3.69-4.59,6.29C43.88,149.15,45.76,151.13,47,151.15Z"/><path class="cls-5" d="M94.54,130.12c3.26-.09,4.95-7.09,2.71-18.24-7.6,1.55-10.91,7.08-9.52,11.68C88.72,126.8,92.22,130.19,94.54,130.12Z"/><path class="cls-5" d="M87.37,161.25c3.27-.1,4.95-7.09,2.71-18.24-7.59,1.54-10.91,7.07-9.51,11.68C81.55,157.92,85.05,161.32,87.37,161.25Z"/><path class="cls-5" d="M56.71,173.81c3.26-.09,4.95-7.09,2.71-18.24-7.6,1.55-10.91,7.08-9.52,11.68C50.89,170.49,54.39,173.88,56.71,173.81Z"/><path class="cls-6" d="M64.28,140.08c2.92,0,4.09-6.73,1.54-17.74-6.72,1.17-9.42,6.43-7.95,11C58.91,136.56,62.21,140,64.28,140.08Z"/><path class="cls-7" d="M80.19,110.19c3.16.75,7.42-4.48,9.48-14.07-7.85-.69-13.11,2.94-13.51,7C75.88,106,77.94,109.65,80.19,110.19Z"/><path class="cls-5" d="M40.66,244.86c3.27-.1,5-7.09,2.72-18.24-7.6,1.54-10.92,7.07-9.52,11.68C34.84,241.53,38.34,244.93,40.66,244.86Z"/><path class="cls-5" d="M37.27,276.9c3.26-.1,4.95-7.09,2.71-18.24-7.6,1.54-10.91,7.07-9.52,11.68C31.45,273.57,35,277,37.27,276.9Z"/><path class="cls-8" d="M36.24,184.22c2.37.2,2.94-5.89.25-16-5.39.72-7.29,5.36-5.83,9.58C31.68,180.75,34.55,184.08,36.24,184.22Z"/><path class="cls-9" d="M30.31,215.21c2.5.1,3.35-5.92.93-15.8-5.72.92-7.92,5.56-6.56,9.66C25.64,212,28.53,215.13,30.31,215.21Z"/><path class="cls-5" d="M116.68,154.22c3.27-.1,5-7.1,2.72-18.25-7.6,1.55-10.92,7.08-9.52,11.68C110.86,150.89,114.36,154.28,116.68,154.22Z"/><path class="cls-5" d="M172.7,132.17c3.27-.1,5-7.09,2.72-18.24-7.6,1.54-10.91,7.07-9.52,11.68C166.89,128.84,170.39,132.24,172.7,132.17Z"/><path class="cls-5" d="M165.54,163.3c3.27-.1,5-7.1,2.71-18.24-7.59,1.54-10.91,7.07-9.51,11.67C159.72,160,163.22,163.37,165.54,163.3Z"/><path class="cls-5" d="M134.88,175.86c3.26-.1,5-7.09,2.71-18.24-7.6,1.54-10.91,7.07-9.52,11.68C129.06,172.53,132.56,175.93,134.88,175.86Z"/><path class="cls-6" d="M142.45,142.12c2.92.06,4.09-6.72,1.54-17.73-6.72,1.17-9.42,6.43-8,11C137.08,138.6,140.38,142.09,142.45,142.12Z"/><path class="cls-5" d="M109.34,94.81c3.27-.09,5-7.09,2.71-18.24-7.59,1.55-10.91,7.08-9.51,11.68C103.52,91.49,107,94.88,109.34,94.81Z"/><path class="cls-10" d="M153.68,110c2.82-.17,4.48-5.89,2.88-14.88-6.6,1.46-9.62,6-8.55,9.73C148.76,107.44,151.68,110.11,153.68,110Z"/><path class="cls-5" d="M127.53,116.46c3.27-.1,4.95-7.09,2.72-18.24-7.6,1.54-10.92,7.07-9.52,11.68C121.71,113.13,125.21,116.53,127.53,116.46Z"/><path class="cls-11" d="M134.28,83.13c2,0,2.83-4.67,1.05-12.34-4.67.81-6.54,4.47-5.51,7.65C130.54,80.68,132.84,83.1,134.28,83.13Z"/><path class="cls-5" d="M62.81,269c3.27-.1,5-7.09,2.72-18.24-7.6,1.55-10.92,7.08-9.52,11.68C57,265.62,60.49,269,62.81,269Z"/><path class="cls-5" d="M118.83,246.91c3.27-.1,5-7.1,2.72-18.24-7.6,1.54-10.92,7.07-9.52,11.67C113,243.58,116.51,247,118.83,246.91Z"/><path class="cls-5" d="M111.67,278c3.26-.09,5-7.09,2.71-18.24-7.6,1.55-10.91,7.08-9.52,11.68C105.85,274.71,109.35,278.1,111.67,278Z"/><path class="cls-5" d="M81,290.6c3.27-.1,5-7.1,2.72-18.24-7.6,1.54-10.92,7.07-9.52,11.67C75.18,287.27,78.68,290.67,81,290.6Z"/><path class="cls-6" d="M88.58,256.86c2.92.05,4.09-6.72,1.54-17.73-6.73,1.17-9.42,6.43-8,11C83.21,253.34,86.51,256.82,88.58,256.86Z"/><path class="cls-5" d="M55.47,209.55c3.26-.1,5-7.09,2.71-18.24-7.6,1.55-10.91,7.07-9.52,11.68C49.65,206.22,53.15,209.62,55.47,209.55Z"/><path class="cls-5" d="M111.49,187.51c3.26-.1,5-7.1,2.71-18.24-7.59,1.54-10.91,7.07-9.51,11.67C105.67,184.18,109.17,187.58,111.49,187.51Z"/><path class="cls-5" d="M104.32,218.63c3.27-.09,5-7.09,2.72-18.24-7.6,1.55-10.92,7.08-9.52,11.68C98.5,215.31,102,218.7,104.32,218.63Z"/><path class="cls-5" d="M73.66,231.2c3.26-.1,5-7.1,2.71-18.24-7.59,1.54-10.91,7.07-9.51,11.67C67.84,227.87,71.34,231.27,73.66,231.2Z"/><path class="cls-6" d="M81.24,197.46c2.92,0,4.08-6.72,1.53-17.74-6.72,1.17-9.42,6.44-7.94,11C75.86,193.94,79.16,197.42,81.24,197.46Z"/><path class="cls-5" d="M139.56,266.92c3.27-.1,4.95-7.1,2.71-18.24-7.59,1.54-10.91,7.07-9.51,11.67C133.74,263.59,137.24,267,139.56,266.92Z"/><path class="cls-5" d="M195.58,244.87c3.27-.09,4.95-7.09,2.71-18.24-7.59,1.55-10.91,7.08-9.51,11.68C189.76,241.54,193.26,244.94,195.58,244.87Z"/><path class="cls-5" d="M188.41,276c3.27-.1,5-7.1,2.72-18.24-7.6,1.54-10.91,7.07-9.52,11.67C182.59,272.67,186.1,276.07,188.41,276Z"/><path class="cls-5" d="M157.75,288.56c3.27-.09,4.95-7.09,2.72-18.24-7.6,1.55-10.92,7.08-9.52,11.68C151.93,285.23,155.43,288.63,157.75,288.56Z"/><path class="cls-6" d="M165.33,254.83c2.92,0,4.09-6.73,1.54-17.74-6.73,1.17-9.43,6.43-8,11C160,251.3,163.26,254.79,165.33,254.83Z"/><path class="cls-5" d="M132.22,207.52c3.26-.1,4.95-7.1,2.71-18.24-7.6,1.54-10.91,7.07-9.52,11.67C126.4,204.19,129.9,207.59,132.22,207.52Z"/><path class="cls-5" d="M188.24,185.47c3.26-.1,4.95-7.09,2.71-18.24-7.6,1.55-10.91,7.07-9.52,11.68C182.42,182.14,185.92,185.54,188.24,185.47Z"/><path class="cls-5" d="M181.07,216.6c3.27-.1,5-7.1,2.71-18.24-7.59,1.54-10.91,7.07-9.51,11.67C175.25,213.27,178.75,216.67,181.07,216.6Z"/><path class="cls-5" d="M150.41,229.16c3.26-.1,5-7.09,2.71-18.24-7.6,1.55-10.91,7.08-9.52,11.68C144.59,225.83,148.09,229.23,150.41,229.16Z"/><path class="cls-6" d="M158,195.43c2.91,0,4.08-6.73,1.53-17.74-6.72,1.17-9.42,6.43-7.94,11C152.61,191.9,155.91,195.39,158,195.43Z"/><path class="cls-12" d="M145.67,352.13c2.77-.27,4.66-5.5,3.51-13.52-6.53,1.59-9.71,5.85-8.83,9.13C141,350.05,143.7,352.33,145.67,352.13Z"/><path class="cls-13" d="M111.64,356.11c2.6-.63,5.31-4.11,5.72-8.77-6.3,2.07-10,5.18-9.8,7C107.7,355.65,109.8,356.56,111.64,356.11Z"/><path class="cls-5" d="M78.34,322.25c3.27-.09,5-7.09,2.72-18.24-7.6,1.55-10.92,7.08-9.52,11.68C72.52,318.93,76,322.32,78.34,322.25Z"/><path class="cls-5" d="M134.36,300.21c3.27-.1,5-7.1,2.72-18.24-7.6,1.54-10.92,7.07-9.52,11.67C128.54,296.88,132,300.28,134.36,300.21Z"/><path class="cls-5" d="M127.2,331.34c3.26-.1,5-7.1,2.71-18.25-7.59,1.55-10.91,7.08-9.51,11.68C121.38,328,124.88,331.4,127.2,331.34Z"/><path class="cls-5" d="M96.53,343.9c3.27-.1,5-7.1,2.72-18.24-7.6,1.54-10.91,7.07-9.52,11.68C90.71,340.57,94.21,344,96.53,343.9Z"/><path class="cls-6" d="M104.11,310.16c2.92,0,4.09-6.72,1.54-17.73-6.72,1.17-9.42,6.43-8,11C98.74,306.64,102,310.13,104.11,310.16Z"/><path class="cls-5" d="M217.73,269c3.27-.09,5-7.09,2.71-18.24-7.59,1.55-10.91,7.08-9.51,11.68C211.91,265.64,215.41,269,217.73,269Z"/><path class="cls-14" d="M229.07,284.19c2.45-.13,3.85-5.18,2.38-13.14-5.73,1.24-8.32,5.26-7.36,8.54C224.77,281.9,227.33,284.28,229.07,284.19Z"/><path class="cls-15" d="M235.63,258.64c2,.31,2.1-5.32-.72-14.86-4.43.38-5.73,4.58-4.28,8.58C231.64,255.17,234.22,258.42,235.63,258.64Z"/><path class="cls-5" d="M210.38,209.56c3.27-.09,5-7.09,2.72-18.24-7.6,1.55-10.91,7.08-9.52,11.68C204.56,206.24,208.07,209.63,210.38,209.56Z"/><path class="cls-5" d="M228.58,231.21c3.26-.1,4.95-7.1,2.71-18.24-7.6,1.54-10.91,7.07-9.52,11.67C222.76,227.88,226.26,231.28,228.58,231.21Z"/><path class="cls-5" d="M156.51,324.3c3.27-.1,5-7.09,2.72-18.24-7.6,1.54-10.92,7.07-9.52,11.68C150.69,321,154.19,324.37,156.51,324.3Z"/><path class="cls-5" d="M212.53,302.26c3.27-.1,5-7.1,2.72-18.25-7.6,1.55-10.92,7.08-9.52,11.68C206.71,298.93,210.21,302.32,212.53,302.26Z"/><path class="cls-16" d="M202.26,326.71c3-.59,5.83-5.2,5.75-11.72-7.29,2.2-11.34,6.16-10.87,8.78C197.47,325.61,200.1,327.13,202.26,326.71Z"/><path class="cls-17" d="M174.19,344.83c3.22-.18,5.1-6.77,3.22-17.15-7.55,1.65-11,6.92-9.75,11.19C168.54,341.88,171.89,345,174.19,344.83Z"/><path class="cls-6" d="M182.28,312.21c2.92.05,4.09-6.72,1.54-17.74-6.73,1.17-9.42,6.44-7.95,11C176.91,308.69,180.21,312.17,182.28,312.21Z"/><path class="cls-5" d="M54.76,300.44c3.27-.1,5-7.1,2.72-18.25-7.6,1.55-10.91,7.08-9.52,11.68C48.94,297.11,52.45,300.51,54.76,300.44Z"/><path class="cls-18" d="M58.34,329.62c2.52-.18,4.09-5.17,2.8-12.94-5.91,1.36-8.68,5.37-7.78,8.56C54,327.49,56.55,329.75,58.34,329.62Z"/><path class="cls-19" d="M78.77,350.75c2.36-.29,4.1-4.54,3.32-11-5.58,1.44-8.39,4.94-7.72,7.56C74.83,349.18,77.1,351,78.77,350.75Z"/><path class="cls-19" d="M36,298.69c2.36-.28,4.1-4.53,3.32-11-5.59,1.43-8.39,4.93-7.72,7.56C32.1,297.13,34.37,298.89,36,298.69Z"/><path class="cls-5" d="M192.42,152.53c3.27-.09,5-7.09,2.71-18.24-7.59,1.55-10.91,7.08-9.51,11.68C186.6,149.2,190.1,152.6,192.42,152.53Z"/><path class="cls-5" d="M212.26,178.78c3.26-.1,5-7.09,2.71-18.24-7.6,1.54-10.91,7.07-9.52,11.68C206.44,175.45,209.94,178.85,212.26,178.78Z"/><path class="cls-20" d="M226.88,201.3c2.16,0,3-5,1.15-13.08-5,.87-7,4.75-5.88,8.12C222.92,198.71,225.35,201.27,226.88,201.3Z"/><path class="cls-11" d="M24.53,255.12c2,0,2.83-4.67,1-12.34-4.67.81-6.54,4.47-5.51,7.65C20.8,252.67,23.09,255.1,24.53,255.12Z"/><path class="cls-4" d="M170.94,101.05c1.67,0,2.36-3.84.92-10.12-3.86.68-5.43,3.69-4.59,6.29C167.86,99.05,169.75,101,170.94,101.05Z"/><path class="cls-4" d="M154.41,84.6c1.68,0,2.36-3.84.93-10.12-3.87.68-5.44,3.69-4.6,6.29C151.33,82.61,153.22,84.59,154.41,84.6Z"/><path class="cls-21" d="M71.23,160.43a62.34,62.34,0,0,0-11,28.91c-1.21,11.76,1.15,25,17.57,25.71,29.85,1.3,36.93-42,33.7-53.52-6.22-22.06-21.08-17.8-28.39-13.92C79.28,149.65,74.81,155.23,71.23,160.43Z"/><path class="cls-22" d="M85.43,210.85c22.59,5.53,40.36-51.69,17.93-61.24C87,142.64,62.83,205.33,85.43,210.85Z"/><path class="cls-21" d="M184.61,160.18a65.51,65.51,0,0,1,10.14,28.91c1.12,11.76-1.06,25-16.25,25.71-27.62,1.31-34.17-42-31.18-53.52,5.75-22.06,19.5-17.79,26.26-13.92C177.16,149.4,181.29,155,184.61,160.18Z"/><path class="cls-23" d="M171.48,210.6c-20.91,5.53-37.34-51.69-16.59-61.23C170.05,142.39,192.38,205.08,171.48,210.6Z"/><path d="M112,212.63a19.63,19.63,0,0,0,1.83,6.82,15.36,15.36,0,0,0,4.06,5.11,18.25,18.25,0,0,0,11.82,4,21.1,21.1,0,0,0,12-4.18,13.37,13.37,0,0,0,4.08-4.95,13.75,13.75,0,0,0,1.16-6.83,11.6,11.6,0,0,1,1.19,7.55,14.14,14.14,0,0,1-3.76,7.12,19.91,19.91,0,0,1-6.65,4.55,21.61,21.61,0,0,1-7.92,1.73,19.3,19.3,0,0,1-14.67-6.23,15.3,15.3,0,0,1-3.62-7.13A14.51,14.51,0,0,1,112,212.63Z"/><path class="cls-24" d="M129.5,59.58s8.05-3.15,10-14.07a54.68,54.68,0,0,0,0-19.72c-.69-2.73-12.55-22.28,7-23.21,21-1,25,8,25,8S147.33,39,151.92,46.79,162.5,63.58,162.5,63.58"/><path class="cls-24" d="M47.59,133.34c9.91-18.76,58.47-38.25,58.47-38.25S95.94,134.43,109.72,147s18.81,15,18.81,15-15.31-24.25-13.17-32.82,4-31.56,15.09-34.06,23.6,61,23.6,61,8.15-32.2,9.54-53.55c.91-14-4.09-21-4.09-21s31,40,26,65c-5,24.8-4,22-4,22,24-46,36-22,32-33-.68-1.88-7.79-25.2-18.39-35.1C173.22,80,167.34,65,161.4,62.51c-11.35-4.82-21.84-3.81-30.9-2.93s-20.46,5.59-43,15A102.55,102.55,0,0,0,61.18,89.83C58,92.31,54.85,96,51.08,102.57,41.48,119.36,47.59,133.34,47.59,133.34Z"/><path class="cls-25" d="M230.68,242.55c-8.18,7,52.82-44.4,52.82-44.4V178.08"/><path class="cls-26" d="M301.77,193.41l-19,5.05"/><path class="cls-25" d="M38.5,246.58c3,0-12.59,1.58-26,8-6.21,3-10,6-10,13,0,18.26,55.17,35.81,36,43-8,3-17,5-14.21,4.41"/></g></g></svg>