<svg xmlns="http://www.w3.org/2000/svg" viewBox="0 0 1366.5 396.79"><defs><style>.cls-1{fill:#ed8185;}.cls-2{fill:#f99;}.cls-3{fill:#c2000c;stroke-width:2.58px;}.cls-10,.cls-11,.cls-12,.cls-13,.cls-14,.cls-15,.cls-16,.cls-17,.cls-18,.cls-19,.cls-20,.cls-3,.cls-4,.cls-5,.cls-6,.cls-7,.cls-8,.cls-9{stroke:#603813;stroke-miterlimit:10;}.cls-10,.cls-11,.cls-12,.cls-13,.cls-14,.cls-15,.cls-16,.cls-17,.cls-18,.cls-19,.cls-20,.cls-4,.cls-5,.cls-6,.cls-7,.cls-8,.cls-9{fill:#ffffb3;}.cls-4{stroke-width:1.14px;}.cls-5{stroke-width:2.13px;}.cls-6{stroke-width:1.99px;}.cls-7{stroke-width:1.99px;}.cls-8{stroke-width:1.7px;}.cls-9{stroke-width:1.74px;}.cls-10{stroke-width:1.78px;}.cls-11{stroke-width:1.67px;}.cls-12{stroke-width:1.21px;}.cls-13{stroke-width:1.56px;}.cls-14{stroke-width:1.49px;}.cls-15{stroke-width:1.57px;}.cls-16{stroke-width:2.05px;}.cls-17{stroke-width:1.57px;}.cls-18{stroke-width:1.38px;}.cls-19{stroke-width:1.47px;}.cls-20{stroke-width:1.38px;}</style></defs><g id="Camada_2" data-name="Camada 2"><g id="Camada_1-2" data-name="Camada 1"><path class="cls-1" d="M1366.5,189.19c-59-13-112.87,7.7-127,79-6.31,31.82-14.06,51-51.58,53.31-1.93.12-3.77.83-5.7.88-11.7.28-50.64-2.17-50.22-47.41.56-59.33-33.5-78.78-33.5-78.78s-19-14-62-14-104,67-104,67-17,21-32,15-31-52-31-52-20-61-77-59-48,104-48,104,6,90-27,123c-13,13-24.1,16.76-32.84,16.6-12.09-.24-19.66-8.1-23.16-21.6-3.36-12.95-1.23-28.52,6-46a102.63,102.63,0,0,0,6-56s-2-66-65-69-58,58-62,71-4,25-43,23c-28.33-1.45-34.44-33-35.66-50.13a37.7,37.7,0,0,0-16.55-28.75c-8.27-5.5-20.37-10.53-37.79-12.12a65.41,65.41,0,0,0-16.19.37c-19.62,3.13-31.78,23.17-26.07,42.21,5.61,18.7,15.26,53.86,15.26,74.42,0,29-9,57-41,62s-69-21-61-91-38.75-98.4-66-95c-16,2-41.86-.88-59.46,53.52C140.82,310,111.5,309.19,97.5,301.19s-62.86-64-62.86-64L0,206.23V8.69H1366.5Z"/><path class="cls-2" d="M1366,179.21c-55-8.2-103.62,14.15-117,81-6.35,31.82-14.16,51-52,53.31-1.94.12-3.79.83-5.74.88-11.79.28-51-2.18-50.6-47.41.56-59.33-33.76-78.78-33.76-78.78s-19.15-14-62.48-14-104.79,67-104.79,67-17.14,21-32.25,15-31.24-52-31.24-52-20.15-61-77.59-59-48.37,104-48.37,104,6,90-27.21,123c-13.06,13-24.28,16.76-33.09,16.59-12.19-.23-19.81-8.09-23.34-21.59-3.38-12.95-1.24-28.52,6-46a101.94,101.94,0,0,0,6-56s-2-66-65.5-69-58.45,58-62.48,71-4,25-43.33,23c-28.55-1.45-34.71-33-35.94-50.13a37.61,37.61,0,0,0-16.67-28.75c-8.33-5.5-20.53-10.53-38.08-12.12a66.46,66.46,0,0,0-16.32.37,33,33,0,0,0-26.26,42.21c5.65,18.7,15.37,53.85,15.37,74.42,0,29-9.07,57-41.32,62s-69.53-21-61.46-91-39.05-98.4-66.51-95c-16.12,2-42.18-.89-59.92,53.52-18.36,56.29-47.9,55.48-62,47.48s-63.34-64-63.34-64L0,198.28V.74H1366.5"/><path class="cls-3" d="M161.37,2.25c-26.19,23.47-50.11,68.93-38.18,100.67,6.67,17.75,22.94,26.88,23.94,27.42,20.71,11.26,47.68,6.65,62.33-4.42,31.79-24,24.75-92.82,4.5-123.67Z"/><path class="cls-4" d="M147.29,22.61c.81.18,1.54-1.7,1.48-5a2.54,2.54,0,0,0-2.86,2.71C146,21.28,146.72,22.48,147.29,22.61Z"/><path class="cls-5" d="M172.47,16.88c1.59.29,3.12-3.08,3.17-8.95-3.84,0-6,2.45-5.8,4.93C170,14.6,171.34,16.68,172.47,16.88Z"/><path class="cls-5" d="M165.82,31.89c1.59.29,3.12-3.08,3.18-8.95-3.84,0-6,2.46-5.8,4.93C163.35,29.61,164.69,31.69,165.82,31.89Z"/><path class="cls-5" d="M149.7,35.09c1.59.28,3.12-3.08,3.17-9-3.83,0-6,2.46-5.79,4.93C147.22,32.8,148.57,34.88,149.7,35.09Z"/><path class="cls-6" d="M156.81,18.79c1.41.33,2.66-3,2.55-8.81-3.37-.1-5.22,2.28-5,4.75C154.57,16.46,155.81,18.56,156.81,18.79Z"/><path class="cls-7" d="M166.2,2.25a3.48,3.48,0,0,0,1.35,3.06c1.08.53,2.79-.56,4.41-3.06Z"/><path class="cls-5" d="M134.69,69.38c1.6.29,3.12-3.07,3.18-8.95-3.84,0-6,2.46-5.8,4.93C132.22,67.1,133.56,69.18,134.69,69.38Z"/><path class="cls-5" d="M129.78,85.25c1.6.29,3.12-3.08,3.18-9-3.84,0-6,2.45-5.8,4.92C127.31,83,128.65,85,129.78,85.25Z"/><path class="cls-8" d="M138.73,38.24c1.13.34,2-2.68,1.76-8.08-2.68-.2-4.07,2-3.8,4.24C136.88,36,137.93,38,138.73,38.24Z"/><path class="cls-9" d="M132.7,53.31c1.2.31,2.23-2.65,2.07-7.9a3.74,3.74,0,0,0-4.16,4.21C130.77,51.18,131.85,53.09,132.7,53.31Z"/><path class="cls-5" d="M180.73,31.36c1.59.29,3.12-3.08,3.17-8.95-3.83,0-6,2.45-5.79,4.93C178.25,29.08,179.6,31.16,180.73,31.36Z"/><path class="cls-5" d="M210.09,26c1.59.29,3.12-3.08,3.18-8.95-3.84,0-6,2.45-5.8,4.92C207.61,23.7,209,25.78,210.09,26Z"/><path class="cls-5" d="M203.45,41c1.59.29,3.12-3.08,3.17-9-3.83,0-6,2.45-5.79,4.93C201,38.72,202.32,40.8,203.45,41Z"/><path class="cls-5" d="M187.33,44.19c1.59.29,3.12-3.08,3.17-8.95-3.83,0-6,2.46-5.79,4.93C184.85,41.91,186.2,44,187.33,44.19Z"/><path class="cls-6" d="M194.44,27.9c1.4.33,2.66-3,2.55-8.81-3.38-.11-5.22,2.28-5,4.74C192.19,25.57,193.44,27.67,194.44,27.9Z"/><path class="cls-10" d="M203.15,12.8c1.38.21,2.76-2.52,2.9-7.23-3.34,0-5.26,2.06-5.12,4C201,11,202.17,12.65,203.15,12.8Z"/><path class="cls-5" d="M189.83,13.37c1.59.29,3.12-3.08,3.17-8.95-3.83,0-6,2.46-5.79,4.93C187.35,11.09,188.7,13.17,189.83,13.37Z"/><path class="cls-5" d="M143,83.86c1.59.29,3.12-3.08,3.17-9-3.83,0-6,2.46-5.79,4.93C140.48,81.58,141.83,83.66,143,83.86Z"/><path class="cls-5" d="M172.32,78.49c1.59.29,3.12-3.08,3.17-8.95-3.83,0-6,2.45-5.79,4.93C169.84,76.21,171.19,78.29,172.32,78.49Z"/><path class="cls-5" d="M165.68,93.5c1.59.29,3.12-3.07,3.17-9-3.83,0-6,2.46-5.79,4.93C163.2,91.22,164.55,93.3,165.68,93.5Z"/><path class="cls-5" d="M149.56,96.7c1.59.28,3.12-3.08,3.17-9-3.83,0-6,2.46-5.8,4.93C147.08,94.41,148.43,96.49,149.56,96.7Z"/><path class="cls-6" d="M156.66,80.41c1.41.32,2.67-3,2.56-8.82-3.38-.1-5.22,2.28-5,4.75C154.42,78.07,155.66,80.17,156.66,80.41Z"/><path class="cls-5" d="M145.46,53c1.59.29,3.12-3.08,3.17-8.95-3.83,0-6,2.46-5.79,4.93C143,50.76,144.33,52.84,145.46,53Z"/><path class="cls-5" d="M174.82,47.67c1.59.29,3.12-3.08,3.17-9-3.83,0-6,2.45-5.79,4.93C172.34,45.39,173.69,47.47,174.82,47.67Z"/><path class="cls-5" d="M168.18,62.68c1.59.29,3.12-3.07,3.17-9-3.83,0-6,2.46-5.79,4.93C165.7,60.4,167.05,62.48,168.18,62.68Z"/><path class="cls-5" d="M152.06,65.88c1.59.28,3.12-3.08,3.17-8.95-3.83,0-6,2.45-5.8,4.92C149.58,63.59,150.93,65.67,152.06,65.88Z"/><path class="cls-6" d="M159.16,49.59c1.41.32,2.67-3,2.56-8.82-3.38-.1-5.22,2.28-5,4.75C156.92,47.25,158.17,49.35,159.16,49.59Z"/><path class="cls-5" d="M180.31,90.76c1.59.29,3.12-3.08,3.18-9-3.84,0-6,2.45-5.8,4.92C177.84,88.47,179.18,90.55,180.31,90.76Z"/><path class="cls-5" d="M209.68,85.39c1.59.29,3.12-3.08,3.17-9-3.83,0-6,2.45-5.8,4.92C207.2,83.1,208.55,85.18,209.68,85.39Z"/><path class="cls-5" d="M203,100.4c1.6.29,3.13-3.08,3.18-9-3.84,0-6,2.45-5.8,4.93C200.56,98.11,201.91,100.2,203,100.4Z"/><path class="cls-5" d="M186.91,103.59c1.59.29,3.12-3.08,3.18-9-3.84,0-6,2.45-5.8,4.93C184.43,101.31,185.78,103.39,186.91,103.59Z"/><path class="cls-6" d="M194,87.3c1.41.33,2.66-3,2.55-8.82-3.37-.1-5.22,2.29-5,4.75C191.78,85,193,87.07,194,87.3Z"/><path class="cls-5" d="M182.81,59.94c1.59.29,3.12-3.08,3.18-8.95-3.84,0-6,2.45-5.8,4.92C180.34,57.65,181.68,59.73,182.81,59.94Z"/><path class="cls-5" d="M212.18,54.57c1.59.29,3.12-3.08,3.17-9-3.83,0-6,2.45-5.8,4.92C209.7,52.28,211.05,54.36,212.18,54.57Z"/><path class="cls-5" d="M205.54,69.58c1.59.29,3.12-3.08,3.17-8.95-3.84,0-6,2.45-5.8,4.93C203.06,67.29,204.41,69.38,205.54,69.58Z"/><path class="cls-5" d="M189.41,72.77c1.59.29,3.12-3.08,3.18-8.95-3.84,0-6,2.45-5.8,4.93C186.93,70.49,188.28,72.57,189.41,72.77Z"/><path class="cls-6" d="M196.52,56.48c1.41.33,2.66-3,2.55-8.82-3.37-.1-5.21,2.29-5,4.75C194.28,54.14,195.52,56.25,196.52,56.48Z"/><path class="cls-11" d="M174.58,134.52c1.37.14,2.82-2.31,3.08-6.49-3.32.14-5.29,2-5.2,3.71C172.52,133,173.61,134.41,174.58,134.52Z"/><path class="cls-12" d="M157.71,133c1.32-.06,3-1.54,3.66-3.85-3.26.4-5.37,1.59-5.46,2.54C155.85,132.38,156.77,133.05,157.71,133Z"/><path class="cls-5" d="M145,112.44c1.59.29,3.12-3.08,3.18-9-3.84,0-6,2.45-5.8,4.93C142.56,110.16,143.91,112.24,145,112.44Z"/><path class="cls-5" d="M174.41,107.07c1.59.29,3.12-3.08,3.17-8.95-3.84,0-6,2.45-5.8,4.93C171.93,104.79,173.28,106.87,174.41,107.07Z"/><path class="cls-5" d="M167.76,122.08c1.59.29,3.12-3.08,3.18-9-3.84,0-6,2.45-5.8,4.93C165.29,119.8,166.63,121.88,167.76,122.08Z"/><path class="cls-5" d="M151.64,125.27c1.59.29,3.12-3.07,3.17-9-3.83,0-6,2.46-5.79,4.93C149.16,123,150.51,125.07,151.64,125.27Z"/><path class="cls-6" d="M158.75,109c1.41.33,2.66-3,2.55-8.81-3.37-.11-5.22,2.28-5,4.74C156.51,106.65,157.75,108.75,158.75,109Z"/><path class="cls-5" d="M217.94,99.87c1.59.29,3.12-3.08,3.17-9-3.83,0-6,2.45-5.79,4.92C215.46,97.58,216.81,99.66,217.94,99.87Z"/><path class="cls-13" d="M221.88,108.74c1.2.19,2.39-2.22,2.49-6.4-2.9,0-4.57,1.8-4.43,3.56C220,107.14,221,108.61,221.88,108.74Z"/><path class="cls-14" d="M227.66,96.49c.92.36,1.55-2.47,1.17-7.59-2.19-.27-3.25,1.72-3,3.9C226.08,94.32,227,96.23,227.66,96.49Z"/><path class="cls-5" d="M220.44,69.05c1.59.29,3.12-3.08,3.17-8.95-3.83,0-6,2.45-5.79,4.92C218,66.76,219.31,68.84,220.44,69.05Z"/><path class="cls-5" d="M227,81.88c1.59.29,3.12-3.08,3.17-8.95-3.83,0-6,2.45-5.79,4.93C224.56,79.59,225.91,81.68,227,81.88Z"/><path class="cls-5" d="M182.67,121.55c1.59.29,3.12-3.08,3.17-9-3.83,0-6,2.45-5.79,4.93C180.19,119.26,181.54,121.35,182.67,121.55Z"/><path class="cls-5" d="M212,116.18c1.59.29,3.12-3.08,3.18-9-3.84,0-6,2.45-5.8,4.92C209.55,113.89,210.9,116,212,116.18Z"/><path class="cls-15" d="M204.56,127.49c1.53,0,3.36-2,4-5.33-3.76.36-6.12,1.94-6.16,3.32A2.27,2.27,0,0,0,204.56,127.49Z"/><path class="cls-16" d="M189.13,133.77c1.58.24,3.16-2.91,3.31-8.35-3.82.06-6,2.37-5.86,4.66C186.7,131.69,188,133.6,189.13,133.77Z"/><path class="cls-6" d="M196.38,118.09c1.4.33,2.66-3,2.55-8.82-3.38-.1-5.22,2.29-5,4.75C194.13,115.76,195.38,117.86,196.38,118.09Z"/><path class="cls-5" d="M135.85,99c1.6.28,3.13-3.08,3.18-9-3.84,0-6,2.46-5.8,4.93C133.38,96.68,134.72,98.76,135.85,99Z"/><path class="cls-17" d="M134.61,114.11c1.24.16,2.51-2.2,2.67-6.27-3,.08-4.75,1.83-4.64,3.53C132.72,112.58,133.73,114,134.61,114.11Z"/><path class="cls-18" d="M142.35,126.91c1.17.1,2.44-1.88,2.72-5.22-2.85.15-4.56,1.64-4.51,3A2.45,2.45,0,0,0,142.35,126.91Z"/><path class="cls-18" d="M127,96.15c1.17.1,2.44-1.87,2.72-5.21-2.85.15-4.56,1.63-4.51,3A2.45,2.45,0,0,0,127,96.15Z"/><path class="cls-5" d="M217.56,38.33c1.59.29,3.12-3.08,3.17-8.95-3.83,0-6,2.45-5.79,4.93C215.08,36.05,216.43,38.13,217.56,38.33Z"/><path class="cls-5" d="M224.48,53.66c1.6.29,3.13-3.08,3.18-8.95-3.84,0-6,2.45-5.8,4.93C222,51.38,223.36,53.46,224.48,53.66Z"/><path class="cls-19" d="M229.27,66.57c1,.24,2-2.2,1.89-6.5-2.49-.08-3.86,1.68-3.67,3.5C227.61,64.85,228.53,66.4,229.27,66.57Z"/><path class="cls-20" d="M125.84,72.91c1,.23,1.85-2.07,1.77-6.13a3.05,3.05,0,0,0-3.45,3.3C124.28,71.28,125.15,72.75,125.84,72.91Z"/><path class="cls-4" d="M212.41,10.06c.81.18,1.54-1.7,1.48-5A2.54,2.54,0,0,0,211,7.74C211.12,8.73,211.83,9.93,212.41,10.06Z"/><path class="cls-3" d="M275.77,2.25c1.74,13.22,6.17,25.27,14.11,34.18,12.69,14.23,31.2,17,32.34,17.19,23.42,3.22,46.93-10.58,56.59-26.07,4.57-7.33,6.63-16,6.76-25.3Z"/><path class="cls-5" d="M289.62,17.61c1.59-.29,1.79-4-.29-9.47-3.58,1.35-4.72,4.4-3.62,6.64C286.47,16.35,288.49,17.82,289.62,17.61Z"/><path class="cls-5" d="M301,2.25c-3.49,1.37-4.6,4.39-3.52,6.6.77,1.57,2.79,3,3.92,2.83,1.58-.29,1.79-3.95-.28-9.43Z"/><path class="cls-5" d="M326.14,12.69c1.59-.29,1.79-4-.29-9.48-3.58,1.35-4.72,4.41-3.62,6.65C323,11.43,325,12.9,326.14,12.69Z"/><path class="cls-5" d="M312.25,21.35c1.59-.3,1.79-4-.3-9.48-3.58,1.35-4.71,4.4-3.62,6.64C309.1,20.08,311.12,21.55,312.25,21.35Z"/><path class="cls-6" d="M310.41,2.25A3.83,3.83,0,0,0,313,3.63c.5-.07.82-.55.93-1.38Z"/><path class="cls-5" d="M335,2.25c.81,1.53,2.75,2.93,3.85,2.73.78-.15,1.23-1.12,1.23-2.73Z"/><path class="cls-5" d="M359.31,2.25a4.17,4.17,0,0,0,.31.9c.77,1.57,2.78,3,3.91,2.83.94-.17,1.39-1.52,1.18-3.73Z"/><path class="cls-5" d="M349.64,14.64c1.59-.29,1.79-4-.3-9.48-3.58,1.35-4.71,4.41-3.62,6.64C346.49,13.38,348.51,14.84,349.64,14.64Z"/><path class="cls-11" d="M349.37,47.85c1.33-.34,1.79-3.14.52-7.13-3.06,1.29-4.24,3.69-3.52,5.3C346.88,47.14,348.42,48.1,349.37,47.85Z"/><path class="cls-12" d="M333.06,52.39c1.22-.51,2.23-2.48,2-4.88-2.9,1.52-4.43,3.37-4.17,4.29C331.09,52.45,332.2,52.76,333.06,52.39Z"/><path class="cls-5" d="M313.75,37.64c1.6-.29,1.8-4-.29-9.48-3.58,1.35-4.71,4.41-3.62,6.64C310.61,36.38,312.63,37.85,313.75,37.64Z"/><path class="cls-5" d="M339.22,22.29c1.59-.29,1.8-4-.29-9.48-3.58,1.35-4.71,4.41-3.62,6.64C336.08,21,338.09,22.49,339.22,22.29Z"/><path class="cls-5" d="M338.48,38.64c1.59-.29,1.79-4-.29-9.47-3.59,1.35-4.72,4.4-3.63,6.64C335.33,37.38,337.35,38.85,338.48,38.64Z"/><path class="cls-5" d="M324.58,47.3c1.59-.29,1.8-4-.29-9.48-3.58,1.35-4.71,4.41-3.62,6.64C321.44,46,323.45,47.51,324.58,47.3Z"/><path class="cls-6" d="M325.3,29.59c1.43-.19,1.4-3.72-.83-9.14-3.18,1.1-4,4-2.91,6.19C322.35,28.19,324.28,29.72,325.3,29.59Z"/><path class="cls-13" d="M381.62,2.25a3,3,0,0,0-.31,2.92c.54,1.12,2,2.14,2.85,2s1.31-2,.6-4.89Z"/><path class="cls-5" d="M352.2,32.9c1.59-.29,1.8-4-.29-9.48-3.58,1.35-4.71,4.41-3.62,6.65C349.06,31.64,351.07,33.11,352.2,32.9Z"/><path class="cls-5" d="M377.67,17.55c1.59-.29,1.79-4-.29-9.48-3.58,1.35-4.72,4.41-3.62,6.64C374.53,16.29,376.54,17.76,377.67,17.55Z"/><path class="cls-15" d="M374.81,30.74c1.43-.52,2.4-3.07,1.78-6.38-3.38,1.66-5,4-4.54,5.27A2.29,2.29,0,0,0,374.81,30.74Z"/><path class="cls-16" d="M362.68,42c1.56-.33,1.89-3.82.05-9-3.55,1.4-4.76,4.34-3.77,6.42C359.65,41,361.57,42.27,362.68,42Z"/><path class="cls-6" d="M363.74,24.85c1.44-.19,1.41-3.72-.82-9.13-3.19,1.09-4,4-2.91,6.18C360.8,23.45,362.73,25,363.74,24.85Z"/><path class="cls-5" d="M300.27,28.29c1.6-.29,1.8-4-.29-9.48-3.58,1.35-4.71,4.41-3.62,6.64C297.13,27,299.15,28.49,300.27,28.29Z"/><path class="cls-17" d="M304.62,42.86c1.22-.28,1.54-2.93.22-6.78-2.78,1.12-3.78,3.37-3,4.92C302.3,42.1,303.75,43.06,304.62,42.86Z"/><path class="cls-18" d="M316.5,52.09c1.12-.31,1.6-2.61.64-5.82-2.6,1.14-3.66,3.13-3.1,4.41A2.46,2.46,0,0,0,316.5,52.09Z"/><path class="cls-18" d="M291,28.79c1.13-.32,1.61-2.61.65-5.83-2.6,1.14-3.66,3.13-3.11,4.42A2.5,2.5,0,0,0,291,28.79Z"/><path class="cls-20" d="M279.2,2.25a2.88,2.88,0,0,0-.35,3.18c.55,1.08,1.89,2.15,2.6,2.05.89-.11.95-2.11-.16-5.23Z"/><path class="cls-3" d="M613.07,1.29c-1.49,13.91.12,27.26,6.2,38.1C628.56,56,646,62.6,647.11,63c22.18,8.08,48.15-.44,61-13.54,11.22-11.47,15.06-29.24,14-48.16Z"/><path class="cls-5" d="M622.46,1.29c.53,1.6,2,3.22,3.09,3.25s1.66-1.14,2-3.25Z"/><path class="cls-5" d="M623.11,21c1.61.05,2.62-3.5,1.78-9.32-3.8.56-5.57,3.31-5,5.73C620.31,19.05,622,20.91,623.11,21Z"/><path class="cls-5" d="M635.92,17.64c1.62.05,2.62-3.5,1.78-9.31-3.79.56-5.56,3.3-5,5.72C633.13,15.75,634.78,17.61,635.92,17.64Z"/><path class="cls-5" d="M661.52,1.29a4,4,0,0,0-.58,3.13c.4,1.7,2,3.56,3.2,3.6,1.36,0,2.28-2.48,2-6.73Z"/><path class="cls-5" d="M659.85,23.84c1.62.05,2.62-3.51,1.78-9.32-3.79.56-5.56,3.31-5,5.72C657.06,21.94,658.71,23.8,659.85,23.84Z"/><path class="cls-5" d="M644.4,29.36c1.61.05,2.61-3.5,1.77-9.32-3.79.57-5.56,3.31-5,5.73C641.6,27.47,643.25,29.33,644.4,29.36Z"/><path class="cls-6" d="M649,12.21c1.44.12,2.18-3.34,1.18-9.09-3.35.39-4.81,3-4.19,5.42C646.38,10.23,647.93,12.13,649,12.21Z"/><path class="cls-5" d="M673.91,19c1.61.05,2.61-3.5,1.77-9.32-3.79.56-5.56,3.31-5,5.73C671.11,17.07,672.76,18.93,673.91,19Z"/><path class="cls-5" d="M700.74,1.29a4.32,4.32,0,0,0-1.82,4.46c.41,1.7,2.06,3.56,3.2,3.59,1.5.05,2.47-3,1.94-8Z"/><path class="cls-5" d="M697.84,25.16c1.61.05,2.61-3.5,1.77-9.31-3.79.56-5.56,3.3-5,5.72C695,23.27,696.69,25.13,697.84,25.16Z"/><path class="cls-5" d="M682.38,30.69c1.62,0,2.62-3.5,1.78-9.32-3.79.56-5.57,3.31-5,5.73C679.58,28.79,681.23,30.65,682.38,30.69Z"/><path class="cls-6" d="M686.93,13.54c1.44.11,2.18-3.34,1.19-9.1-3.35.4-4.81,3-4.19,5.43C684.36,11.56,685.91,13.45,686.93,13.54Z"/><path class="cls-11" d="M674.89,63.08c1.37-.06,2.43-2.69,2.06-6.86-3.27.62-4.94,2.71-4.59,4.43C672.61,61.86,673.91,63.12,674.89,63.08Z"/><path class="cls-12" d="M658,64.08c1.3-.25,2.72-2,3-4.35-3.17.88-5.07,2.36-5,3.32C656,63.72,657.05,64.25,658,64.08Z"/><path class="cls-5" d="M642.32,45.59c1.62.06,2.62-3.5,1.78-9.31-3.79.56-5.56,3.31-5,5.72C639.53,43.7,641.18,45.56,642.32,45.59Z"/><path class="cls-5" d="M670.54,36c1.62.05,2.62-3.51,1.78-9.32-3.79.56-5.56,3.31-5,5.72C667.74,34.07,669.39,35.93,670.54,36Z"/><path class="cls-5" d="M666.25,51.79c1.62.05,2.62-3.51,1.78-9.32-3.79.56-5.56,3.31-5,5.72C663.46,49.89,665.11,51.75,666.25,51.79Z"/><path class="cls-5" d="M650.8,57.31c1.61,0,2.62-3.5,1.78-9.31-3.8.56-5.57,3.3-5,5.72C648,55.42,649.65,57.28,650.8,57.31Z"/><path class="cls-6" d="M655.35,40.16c1.44.12,2.18-3.34,1.18-9.09-3.35.39-4.81,3-4.19,5.42C652.78,38.18,654.33,40.08,655.35,40.16Z"/><path class="cls-5" d="M712.49,22.44c1.62.06,2.62-3.5,1.78-9.31-3.79.56-5.56,3.31-5,5.72C709.7,20.55,711.35,22.41,712.49,22.44Z"/><path class="cls-13" d="M717.73,30.64c1.22,0,2-2.55,1.5-6.7-2.87.46-4.24,2.46-3.85,4.18C715.66,29.33,716.87,30.63,717.73,30.64Z"/><path class="cls-14" d="M721.59,17.68c1,.22,1.16-2.68,0-7.68-2.2.06-2.94,2.18-2.32,4.29C719.7,15.77,720.9,17.52,721.59,17.68Z"/><path class="cls-5" d="M716.25,1.29c.69,1.11,1.72,2,2.51,2s1.34-.7,1.7-2Z"/><path class="cls-5" d="M680.91,49.07c1.62,0,2.62-3.5,1.78-9.32-3.79.56-5.56,3.31-5,5.73C678.12,47.17,679.76,49,680.91,49.07Z"/><path class="cls-5" d="M709.13,39.44c1.62.05,2.62-3.5,1.78-9.32-3.79.57-5.57,3.31-5,5.73C706.33,37.55,708,39.41,709.13,39.44Z"/><path class="cls-15" d="M703.46,51.73c1.52-.22,3-2.5,3.13-5.87-3.66.91-5.75,2.83-5.58,4.19A2.29,2.29,0,0,0,703.46,51.73Z"/><path class="cls-16" d="M689.16,60.2c1.6,0,2.68-3.34,2-8.74-3.77.62-5.6,3.23-5.08,5.47C686.44,58.5,688,60.19,689.16,60.2Z"/><path class="cls-6" d="M693.94,43.63c1.44.12,2.18-3.33,1.18-9.09-3.35.4-4.81,3-4.19,5.43C691.37,41.65,692.92,43.55,693.94,43.63Z"/><path class="cls-5" d="M631.19,33.62c1.62.05,2.62-3.5,1.78-9.32-3.79.56-5.56,3.31-5,5.73C628.4,31.73,630,33.58,631.19,33.62Z"/><path class="cls-17" d="M632.26,48.77c1.25,0,2.15-2.54,1.69-6.58-3,.52-4.42,2.5-4.05,4.17C630.16,47.54,631.37,48.79,632.26,48.77Z"/><path class="cls-18" d="M641.85,60.29c1.18-.07,2.14-2.21,1.91-5.55-2.8.57-4.27,2.28-4,3.66A2.45,2.45,0,0,0,641.85,60.29Z"/><path class="cls-18" d="M622,32.14c1.17-.07,2.13-2.21,1.9-5.55-2.79.57-4.26,2.28-4,3.66A2.47,2.47,0,0,0,622,32.14Z"/><path class="cls-20" d="M617.33,9.33c1,.08,1.51-2.32.82-6.33a3.06,3.06,0,0,0-2.91,3.78C615.55,8,616.62,9.27,617.33,9.33Z"/><path class="cls-3" d="M978.58,1.29c-2.77,10.11-3.43,20.17-1.1,29.45,4.6,18.38,19.72,29.25,20.66,29.9,19.28,13.47,46.61,11.88,62.44,2.5C1079,52.22,1087.8,27.2,1089.41,1.29Z"/><path class="cls-5" d="M986.05,13.91c1.55.47,3.45-2.71,4.18-8.54-3.81-.43-6.25,1.77-6.33,4.25C983.85,11.37,985,13.59,986.05,13.91Z"/><path class="cls-5" d="M999.3,14c1.55.47,3.45-2.71,4.18-8.54-3.81-.43-6.25,1.77-6.33,4.26C997.1,11.45,998.2,13.67,999.3,14Z"/><path class="cls-5" d="M1029.09,11.9c1.55.47,3.45-2.71,4.18-8.54-3.81-.43-6.25,1.77-6.33,4.26C1026.89,9.36,1028,11.58,1029.09,11.9Z"/><path class="cls-5" d="M1020.77,26.09c1.55.46,3.46-2.72,4.18-8.55-3.81-.42-6.25,1.78-6.32,4.26C1018.57,23.54,1019.68,25.76,1020.77,26.09Z"/><path class="cls-5" d="M1004.39,27.48c1.55.46,3.45-2.72,4.18-8.55-3.81-.42-6.25,1.78-6.33,4.26C1002.19,24.93,1003.29,27.15,1004.39,27.48Z"/><path class="cls-6" d="M1013.31,12.07c1.36.49,3-2.66,3.55-8.47-3.34-.48-5.45,1.69-5.48,4.16C1011.35,9.5,1012.35,11.73,1013.31,12.07Z"/><path class="cls-5" d="M1035.63,25c1.55.46,3.45-2.72,4.18-8.55-3.81-.42-6.25,1.78-6.33,4.26C1033.43,22.43,1034.53,24.65,1035.63,25Z"/><path class="cls-5" d="M1065.42,22.89c1.55.46,3.45-2.72,4.18-8.55-3.81-.42-6.25,1.78-6.33,4.26C1063.22,20.34,1064.32,22.56,1065.42,22.89Z"/><path class="cls-5" d="M1057.11,37.07c1.54.46,3.45-2.71,4.17-8.54-3.81-.43-6.24,1.77-6.32,4.25C1054.9,34.53,1056,36.74,1057.11,37.07Z"/><path class="cls-5" d="M1040.72,38.46c1.55.46,3.45-2.71,4.18-8.54-3.81-.43-6.25,1.77-6.33,4.25C1038.52,35.91,1039.62,38.13,1040.72,38.46Z"/><path class="cls-6" d="M1049.64,23.06c1.36.48,3-2.67,3.55-8.48-3.34-.48-5.45,1.69-5.48,4.17C1047.68,20.49,1048.68,22.72,1049.64,23.06Z"/><path class="cls-5" d="M1061.18,1.29a4,4,0,0,0-.22,1.14c0,1.75,1,4,2.15,4.29,1.25.37,2.72-1.61,3.63-5.43Z"/><path class="cls-5" d="M1045.6,1.29a4,4,0,0,0-1,2.53c0,1.75,1.05,4,2.15,4.29,1.38.42,3-2.1,3.91-6.82Z"/><path class="cls-11" d="M1024.94,67.82c1.34.3,3.06-2,3.8-6.1-3.32-.23-5.49,1.36-5.6,3.11C1023.06,66.07,1024,67.61,1024.94,67.82Z"/><path class="cls-12" d="M1008.34,64.47c1.32.09,3.14-1.2,4.08-3.42-3.29,0-5.52,1-5.72,1.92C1006.56,63.62,1007.4,64.4,1008.34,64.47Z"/><path class="cls-5" d="M998.1,42.62c1.55.46,3.46-2.71,4.18-8.54-3.81-.43-6.24,1.77-6.32,4.25C995.9,40.08,997,42.29,998.1,42.62Z"/><path class="cls-5" d="M1027.9,40.53c1.54.46,3.45-2.71,4.17-8.54-3.81-.43-6.24,1.77-6.32,4.25C1025.69,38,1026.8,40.2,1027.9,40.53Z"/><path class="cls-5" d="M1019.58,54.72c1.55.46,3.45-2.72,4.18-8.55-3.81-.42-6.25,1.78-6.33,4.26C1017.38,52.17,1018.48,54.39,1019.58,54.72Z"/><path class="cls-5" d="M1003.2,56.1c1.54.47,3.45-2.71,4.17-8.54-3.81-.43-6.24,1.77-6.32,4.25C1001,53.56,1002.1,55.78,1003.2,56.1Z"/><path class="cls-6" d="M1012.12,40.7c1.36.48,3-2.66,3.54-8.48-3.34-.47-5.44,1.69-5.48,4.17C1010.16,38.13,1011.15,40.36,1012.12,40.7Z"/><path class="cls-5" d="M1072,38.19c1.55.46,3.45-2.71,4.17-8.54-3.81-.43-6.24,1.77-6.32,4.25C1069.78,35.65,1070.88,37.86,1072,38.19Z"/><path class="cls-13" d="M1074.88,47.44c1.17.32,2.63-1.94,3.2-6.08-2.88-.29-4.74,1.29-4.81,3C1073.22,45.65,1074,47.22,1074.88,47.44Z"/><path class="cls-14" d="M1082,35.91c.88.46,1.83-2.29,2-7.42-2.14-.5-3.42,1.36-3.38,3.55C1080.7,33.58,1081.39,35.58,1082,35.91Z"/><path class="cls-5" d="M1076.64,1.29a4,4,0,0,0-.8,2.26c-.06,1.75,1,4,2.14,4.29,1.36.41,3-2,3.87-6.55Z"/><path class="cls-5" d="M1083.07,21.32c1.55.47,3.46-2.71,4.18-8.54-3.81-.43-6.25,1.77-6.32,4.25C1080.87,18.78,1082,21,1083.07,21.32Z"/><path class="cls-5" d="M1034.45,55.83c1.55.47,3.46-2.71,4.18-8.54-3.81-.43-6.25,1.77-6.32,4.26C1032.25,53.29,1033.35,55.51,1034.45,55.83Z"/><path class="cls-5" d="M1064.24,53.74c1.55.47,3.46-2.71,4.18-8.54-3.81-.43-6.25,1.77-6.32,4.26C1062,51.2,1063.14,53.42,1064.24,53.74Z"/><path class="cls-15" d="M1055.53,64.16c1.52.18,3.57-1.64,4.56-4.86-3.77-.06-6.3,1.26-6.49,2.62A2.27,2.27,0,0,0,1055.53,64.16Z"/><path class="cls-16" d="M1039.48,68.69c1.54.41,3.47-2.54,4.24-7.93-3.81-.37-6.26,1.69-6.35,4C1037.3,66.35,1038.38,68.39,1039.48,68.69Z"/><path class="cls-6" d="M1048.47,53.91c1.36.49,3-2.66,3.54-8.47-3.34-.48-5.44,1.69-5.48,4.16C1046.51,51.34,1047.5,53.57,1048.47,53.91Z"/><path class="cls-5" d="M990.51,28.22c1.55.46,3.46-2.72,4.18-8.55-3.81-.42-6.25,1.78-6.32,4.26C988.31,25.67,989.42,27.89,990.51,28.22Z"/><path class="cls-17" d="M987.55,43.12c1.21.31,2.74-1.9,3.37-5.92-3-.26-4.93,1.28-5,3C985.85,41.39,986.69,42.91,987.55,43.12Z"/><path class="cls-18" d="M993.77,56.7c1.15.23,2.65-1.6,3.3-4.88-2.84-.17-4.71,1.11-4.82,2.51A2.43,2.43,0,0,0,993.77,56.7Z"/><path class="cls-18" d="M982,24.44c1.15.22,2.64-1.6,3.3-4.88-2.85-.17-4.72,1.11-4.83,2.51A2.45,2.45,0,0,0,982,24.44Z"/><path class="cls-19" d="M1086.27,1.29a3.1,3.1,0,0,0-.66,1.89c0,1.28.72,2.92,1.43,3.18.91.32,2-1.55,2.47-5.07Z"/><path class="cls-3" d="M462,143.38C419.76,116.19,421.71,20.14,450.8,7.81c30.08-12.74,108.33,56,94.42,103.6-5.09,17.47-24,37-47.44,40C496.65,151.58,478.05,153.75,462,143.38Z"/><path class="cls-4" d="M432.81,64.71c.76-.33.2-2.27-1.85-4.91a2.49,2.49,0,0,0-.67,3.86A3.08,3.08,0,0,0,432.81,64.71Z"/><path class="cls-5" d="M449.59,45.38c1.45-.7.64-4.3-2.86-9.05-3.09,2.24-3.35,5.48-1.69,7.35C446.21,45,448.55,45.88,449.59,45.38Z"/><path class="cls-5" d="M453.32,61.33c1.45-.69.65-4.3-2.86-9-3.09,2.24-3.35,5.49-1.68,7.35C449.94,61,452.29,61.83,453.32,61.33Z"/><path class="cls-5" d="M442.28,73.33c1.46-.7.65-4.3-2.86-9-3.08,2.24-3.34,5.48-1.68,7.35C438.91,72.94,441.25,73.83,442.28,73.33Z"/><path class="cls-6" d="M438.15,56.08c1.33-.56.34-4-3.27-8.59-2.78,1.9-2.82,4.89-1.13,6.73C434.94,55.51,437.21,56.47,438.15,56.08Z"/><path class="cls-7" d="M438.64,39c1.6-.28,2.35-3.57,1.14-8.46-3.7,1.25-5.27,4-4.53,6C435.76,37.86,437.51,39.15,438.64,39Z"/><path class="cls-5" d="M450.94,109.69c1.45-.7.65-4.3-2.86-9-3.08,2.24-3.34,5.48-1.68,7.35C447.57,109.3,449.91,110.19,450.94,109.69Z"/><path class="cls-5" d="M456.58,125.32c1.45-.7.65-4.3-2.86-9.06-3.08,2.24-3.34,5.49-1.68,7.36C453.21,124.93,455.55,125.81,456.58,125.32Z"/><path class="cls-8" d="M435.37,82.28c1.11-.38,0-3.33-3.47-7.52-2.28,1.41-2.09,3.95-.49,5.63C432.53,81.57,434.58,82.55,435.37,82.28Z"/><path class="cls-9" d="M439.63,97.93c1.15-.46.19-3.44-3.12-7.56a3.68,3.68,0,0,0-.8,5.82C436.79,97.35,438.81,98.25,439.63,97.93Z"/><path class="cls-5" d="M465,52.19c1.45-.7.65-4.3-2.86-9.06-3.08,2.24-3.34,5.49-1.68,7.36C461.61,51.8,464,52.68,465,52.19Z"/><path class="cls-5" d="M485.34,30.69c1.46-.7.65-4.3-2.85-9-3.09,2.24-3.35,5.48-1.69,7.35C482,30.3,484.31,31.19,485.34,30.69Z"/><path class="cls-5" d="M489.08,46.65c1.45-.7.64-4.3-2.86-9.06-3.09,2.25-3.35,5.49-1.69,7.36C485.7,46.26,488,47.14,489.08,46.65Z"/><path class="cls-5" d="M478,58.65c1.45-.7.65-4.31-2.86-9.06-3.08,2.24-3.34,5.49-1.68,7.35C474.67,58.26,477,59.14,478,58.65Z"/><path class="cls-6" d="M473.91,41.39c1.33-.56.34-4-3.28-8.58-2.77,1.89-2.81,4.88-1.12,6.72C470.7,40.82,473,41.79,473.91,41.39Z"/><path class="cls-5" d="M448.37,25.94c1.45-.7.65-4.3-2.86-9-3.09,2.24-3.35,5.48-1.68,7.35C445,25.56,447.33,26.44,448.37,25.94Z"/><path class="cls-10" d="M471.79,24.15c1.23-.64.7-3.64-2-7.52-2.65,2-3,4.74-1.67,6.25C469,24,470.91,24.61,471.79,24.15Z"/><path class="cls-5" d="M461.43,32.4c1.45-.7.65-4.3-2.86-9-3.09,2.24-3.35,5.48-1.68,7.35C458.05,32,460.4,32.9,461.43,32.4Z"/><path class="cls-20" d="M457,15.5c.93-.38.23-2.74-2.29-6a3,3,0,0,0-.77,4.67C454.78,15.11,456.36,15.78,457,15.5Z"/><path class="cls-5" d="M466.34,116.5c1.45-.7.65-4.3-2.86-9.06-3.09,2.24-3.35,5.49-1.69,7.36C463,116.11,465.3,117,466.34,116.5Z"/><path class="cls-5" d="M486.7,95c1.45-.7.65-4.3-2.86-9-3.08,2.24-3.34,5.48-1.68,7.35C483.33,94.61,485.67,95.5,486.7,95Z"/><path class="cls-5" d="M490.43,111c1.45-.7.65-4.3-2.86-9.06-3.08,2.25-3.34,5.49-1.68,7.36C487.06,110.57,489.4,111.45,490.43,111Z"/><path class="cls-5" d="M479.4,123c1.45-.7.65-4.31-2.86-9.06-3.09,2.24-3.35,5.49-1.68,7.35C476,122.57,478.36,123.45,479.4,123Z"/><path class="cls-6" d="M475.27,105.7c1.33-.56.34-4-3.28-8.58-2.77,1.89-2.81,4.88-1.12,6.72C472.05,105.13,474.32,106.1,475.27,105.7Z"/><path class="cls-5" d="M449.72,90.25c1.46-.7.65-4.3-2.86-9-3.08,2.24-3.34,5.48-1.68,7.35C446.35,89.87,448.69,90.75,449.72,90.25Z"/><path class="cls-5" d="M470.09,68.76c1.45-.7.65-4.3-2.86-9.05-3.09,2.24-3.35,5.48-1.69,7.35C466.71,68.37,469.05,69.26,470.09,68.76Z"/><path class="cls-5" d="M473.82,84.71c1.45-.69.65-4.3-2.86-9-3.08,2.24-3.34,5.49-1.68,7.35C470.44,84.33,472.79,85.21,473.82,84.71Z"/><path class="cls-5" d="M462.78,96.71c1.46-.7.65-4.3-2.85-9-3.09,2.24-3.35,5.48-1.69,7.35C459.41,96.32,461.75,97.21,462.78,96.71Z"/><path class="cls-6" d="M458.65,79.46c1.33-.56.34-4-3.27-8.59-2.78,1.89-2.82,4.89-1.13,6.73C455.44,78.89,457.71,79.85,458.65,79.46Z"/><path class="cls-5" d="M500.54,100.19c1.45-.7.65-4.3-2.86-9-3.08,2.24-3.34,5.48-1.68,7.35C497.17,99.8,499.51,100.69,500.54,100.19Z"/><path class="cls-5" d="M520.9,78.7c1.46-.7.65-4.3-2.85-9.06-3.09,2.24-3.35,5.49-1.69,7.35C517.53,78.31,519.87,79.19,520.9,78.7Z"/><path class="cls-5" d="M524.63,94.65c1.46-.7.65-4.3-2.85-9.05-3.09,2.24-3.35,5.48-1.69,7.35C521.26,94.26,523.6,95.15,524.63,94.65Z"/><path class="cls-5" d="M513.6,106.65c1.45-.7.65-4.3-2.86-9.05-3.08,2.24-3.34,5.48-1.68,7.35C510.23,106.26,512.57,107.15,513.6,106.65Z"/><path class="cls-6" d="M509.47,89.39c1.33-.56.34-4-3.28-8.58-2.77,1.89-2.81,4.89-1.12,6.72C506.26,88.83,508.53,89.79,509.47,89.39Z"/><path class="cls-5" d="M483.93,74c1.45-.7.64-4.3-2.86-9.06-3.09,2.24-3.35,5.49-1.69,7.36C480.55,73.56,482.89,74.44,483.93,74Z"/><path class="cls-5" d="M504.29,52.45c1.45-.7.65-4.3-2.86-9.05-3.08,2.24-3.34,5.48-1.68,7.35C500.92,52.06,503.26,53,504.29,52.45Z"/><path class="cls-5" d="M508,68.41c1.45-.7.65-4.3-2.86-9.06-3.08,2.25-3.34,5.49-1.68,7.36C504.65,68,507,68.9,508,68.41Z"/><path class="cls-5" d="M497,80.41c1.45-.7.64-4.31-2.86-9.06-3.09,2.24-3.35,5.49-1.69,7.35C493.61,80,496,80.9,497,80.41Z"/><path class="cls-6" d="M492.86,63.15c1.33-.56.34-3.95-3.28-8.58-2.77,1.89-2.81,4.88-1.13,6.72C489.64,62.58,491.91,63.55,492.86,63.15Z"/><path class="cls-11" d="M522.37,138.73c1.19-.69.88-3.5-1.44-7-2.59,2.06-3.07,4.68-1.94,6C519.78,138.7,521.53,139.21,522.37,138.73Z"/><path class="cls-12" d="M507.9,147.39c1-.82,1.47-3,.62-5.24-2.38,2.23-3.36,4.42-2.86,5.24C506,148,507.17,148,507.9,147.39Z"/><path class="cls-5" d="M485.28,138.26c1.46-.7.65-4.3-2.86-9.06-3.08,2.24-3.34,5.49-1.68,7.36C481.91,137.87,484.25,138.75,485.28,138.26Z"/><path class="cls-5" d="M505.65,116.76c1.45-.7.64-4.3-2.86-9.05-3.09,2.24-3.35,5.48-1.69,7.35C502.27,116.37,504.61,117.26,505.65,116.76Z"/><path class="cls-5" d="M509.38,132.72c1.45-.7.65-4.3-2.86-9.06-3.09,2.25-3.35,5.49-1.68,7.36C506,132.33,508.35,133.21,509.38,132.72Z"/><path class="cls-5" d="M498.34,144.72c1.46-.7.65-4.31-2.86-9.06-3.08,2.24-3.34,5.49-1.68,7.35C495,144.33,497.31,145.21,498.34,144.72Z"/><path class="cls-6" d="M494.21,127.46c1.33-.56.34-3.95-3.27-8.58-2.78,1.89-2.82,4.88-1.13,6.72C491,126.89,493.27,127.86,494.21,127.46Z"/><path class="cls-5" d="M536.3,85.5c1.45-.69.65-4.3-2.86-9-3.08,2.24-3.34,5.49-1.68,7.35C532.92,85.12,535.27,86,536.3,85.5Z"/><path class="cls-13" d="M544.83,90.34c1.07-.55.58-3.19-1.87-6.61-2.31,1.73-2.58,4.12-1.41,5.46C542.37,90.13,544.06,90.73,544.83,90.34Z"/><path class="cls-14" d="M542.07,77.11c1-.26-.24-2.9-3.65-6.79-1.92,1.06-1.56,3.28,0,4.86C539.49,76.29,541.38,77.28,542.07,77.11Z"/><path class="cls-5" d="M519.68,59.26c1.46-.7.65-4.3-2.85-9-3.09,2.24-3.35,5.48-1.69,7.35C516.31,58.87,518.65,59.76,519.68,59.26Z"/><path class="cls-5" d="M532.74,65.72c1.46-.7.65-4.3-2.85-9-3.09,2.24-3.35,5.48-1.69,7.35C529.37,65.33,531.71,66.22,532.74,65.72Z"/><path class="cls-5" d="M521,123.57c1.45-.7.65-4.3-2.86-9-3.08,2.24-3.34,5.48-1.68,7.35C517.67,123.18,520,124.07,521,123.57Z"/><path class="cls-5" d="M541.4,102.08c1.46-.7.65-4.3-2.85-9.06-3.09,2.24-3.35,5.49-1.69,7.35C538,101.69,540.37,102.57,541.4,102.08Z"/><path class="cls-15" d="M542.24,115.54c1.23-.88,1.47-3.59,0-6.62-2.8,2.49-3.74,5.15-2.94,6.27A2.33,2.33,0,0,0,542.24,115.54Z"/><path class="cls-16" d="M533.62,129.61c1.42-.73.78-4.18-2.39-8.64-3,2.28-3.41,5.42-1.89,7.17C530.41,129.36,532.61,130.13,533.62,129.61Z"/><path class="cls-6" d="M530,112.77c1.33-.56.34-4-3.28-8.58-2.77,1.89-2.81,4.89-1.12,6.72C526.76,112.21,529,113.17,530,112.77Z"/><path class="cls-5" d="M469.75,132.8c1.45-.7.65-4.31-2.86-9.06-3.08,2.24-3.34,5.49-1.68,7.35C466.38,132.41,468.72,133.29,469.75,132.8Z"/><path class="cls-17" d="M477.9,145.7c1.1-.59.69-3.23-1.64-6.6-2.36,1.82-2.71,4.24-1.59,5.55C475.45,145.57,477.12,146.12,477.9,145.7Z"/><path class="cls-18" d="M491.85,151.46c1-.6.84-2.93-1-5.78-2.2,1.79-2.68,4-1.79,5.07A2.49,2.49,0,0,0,491.85,151.46Z"/><path class="cls-18" d="M460.9,135.73c1-.6.84-2.94-1-5.79-2.19,1.79-2.68,4-1.79,5.08A2.49,2.49,0,0,0,460.9,135.73Z"/><path class="cls-5" d="M498.8,36.25c1.46-.7.65-4.3-2.85-9.06-3.09,2.25-3.35,5.49-1.69,7.36C495.43,35.86,497.77,36.74,498.8,36.25Z"/><path class="cls-5" d="M513.64,44.52c1.45-.69.65-4.3-2.86-9.05-3.08,2.24-3.34,5.49-1.68,7.35C510.27,44.14,512.61,45,513.64,44.52Z"/><path class="cls-19" d="M525.28,52.1c1-.41.26-2.91-2.4-6.33a3.2,3.2,0,0,0-.84,5C522.91,51.69,524.59,52.4,525.28,52.1Z"/><path class="cls-20" d="M446,117.71c.93-.39.24-2.75-2.28-6a3,3,0,0,0-.78,4.67C443.72,117.31,445.3,118,446,117.71Z"/><path class="cls-4" d="M477.58,16.53c.76-.33.21-2.27-1.85-4.91a2.5,2.5,0,0,0-.66,3.86A3.06,3.06,0,0,0,477.58,16.53Z"/><path class="cls-4" d="M466.43,12.16c.77-.32.21-2.27-1.84-4.91a2.49,2.49,0,0,0-.67,3.86A3,3,0,0,0,466.43,12.16Z"/><path class="cls-3" d="M831.15,1.29c-24.87,25.1-45.25,83.13-24.93,115.39,10.13,16.09,27.92,21.85,29,22.19,22.57,7,48.07-2.84,60.19-16.55,26-29.37,6-94.11-19.62-121Z"/><path class="cls-4" d="M813.58,33.26c.84,0,1.17-2,.44-5.22a2.52,2.52,0,0,0-2.26,3.22C812.05,32.21,813,33.24,813.58,33.26Z"/><path class="cls-5" d="M837.09,22.71c1.62,0,2.44-3.63,1.3-9.39-3.76.75-5.39,3.58-4.68,6C834.2,21,836,22.73,837.09,22.71Z"/><path class="cls-5" d="M833.62,38.73c1.62,0,2.44-3.63,1.3-9.4-3.76.75-5.38,3.58-4.68,6C830.73,37,832.48,38.75,833.62,38.73Z"/><path class="cls-5" d="M818.47,45c1.62,0,2.44-3.63,1.3-9.39-3.76.75-5.39,3.58-4.69,6C815.58,43.26,817.32,45,818.47,45Z"/><path class="cls-6" d="M822.14,27.65c1.44.05,2-3.44.71-9.14-3.32.57-4.65,3.26-3.9,5.63C819.47,25.8,821.11,27.62,822.14,27.65Z"/><path class="cls-7" d="M829.94,12.34c1.56.41,3.66-2.27,4.66-7.2-3.89-.41-6.49,1.43-6.68,3.53C827.79,10.15,828.82,12.05,829.94,12.34Z"/><path class="cls-5" d="M810.71,81.56c1.61,0,2.43-3.63,1.29-9.39-3.75.75-5.38,3.58-4.68,6C807.81,79.81,809.56,81.58,810.71,81.56Z"/><path class="cls-5" d="M809.1,98.07c1.62,0,2.44-3.63,1.3-9.39-3.76.75-5.38,3.58-4.68,6C806.21,96.32,808,98.09,809.1,98.07Z"/><path class="cls-8" d="M808.36,50.25c1.17.12,1.44-3,.09-8.26-2.67.33-3.6,2.71-2.87,4.9C806.09,48.43,807.52,50.17,808.36,50.25Z"/><path class="cls-9" d="M805.5,66.2c1.24.07,1.65-3,.43-8.14A3.71,3.71,0,0,0,802.7,63C803.18,64.49,804.62,66.15,805.5,66.2Z"/><path class="cls-5" d="M848.12,35.28c1.62,0,2.44-3.63,1.3-9.39-3.76.75-5.39,3.58-4.68,6C845.23,33.53,847,35.3,848.12,35.28Z"/><path class="cls-5" d="M875.81,24.27c1.62,0,2.44-3.63,1.3-9.4-3.76.75-5.39,3.58-4.68,6C872.92,22.51,874.66,24.29,875.81,24.27Z"/><path class="cls-5" d="M872.34,40.28c1.62,0,2.44-3.63,1.3-9.4-3.76.75-5.39,3.59-4.68,6C869.45,38.52,871.19,40.3,872.34,40.28Z"/><path class="cls-5" d="M857.19,46.57c1.61,0,2.43-3.63,1.29-9.4-3.75.75-5.38,3.58-4.68,6C854.3,44.81,856,46.59,857.19,46.57Z"/><path class="cls-6" d="M860.85,29.21c1.45,0,2-3.44.72-9.14-3.33.56-4.65,3.26-3.91,5.62C858.19,27.36,859.83,29.18,860.85,29.21Z"/><path class="cls-5" d="M841,1.29c.54,1.64,2.22,3.32,3.34,3.3.92,0,1.58-1.21,1.77-3.3Z"/><path class="cls-10" d="M866.33,12.7c1.4-.07,2.21-3,1.39-7.66-3.26.71-4.75,3.06-4.21,5C863.89,11.36,865.34,12.75,866.33,12.7Z"/><path class="cls-5" d="M853.4,15.87c1.62,0,2.43-3.63,1.3-9.39-3.76.75-5.39,3.58-4.69,6C850.51,14.12,852.25,15.89,853.4,15.87Z"/><path class="cls-5" d="M821.73,94.13c1.62,0,2.44-3.63,1.3-9.39-3.76.75-5.38,3.58-4.68,6C818.84,92.38,820.59,94.15,821.73,94.13Z"/><path class="cls-5" d="M849.42,83.12c1.62,0,2.44-3.63,1.3-9.4-3.76.75-5.39,3.58-4.68,6C846.53,81.36,848.27,83.14,849.42,83.12Z"/><path class="cls-5" d="M846,99.13c1.62,0,2.44-3.63,1.3-9.39-3.76.75-5.39,3.58-4.68,6C843.06,97.38,844.8,99.15,846,99.13Z"/><path class="cls-5" d="M830.8,105.42c1.62,0,2.43-3.63,1.3-9.4-3.76.75-5.39,3.58-4.69,6C827.91,103.66,829.65,105.44,830.8,105.42Z"/><path class="cls-6" d="M834.47,88.06c1.44,0,2-3.44.71-9.14-3.32.56-4.65,3.26-3.91,5.62C831.8,86.21,833.44,88,834.47,88.06Z"/><path class="cls-5" d="M818,63.44c1.61,0,2.43-3.63,1.3-9.39-3.76.75-5.39,3.58-4.69,6C815.06,61.69,816.8,63.46,818,63.44Z"/><path class="cls-5" d="M845.63,52.42c1.62,0,2.44-3.62,1.3-9.39-3.76.75-5.38,3.58-4.68,6C842.74,50.67,844.49,52.45,845.63,52.42Z"/><path class="cls-5" d="M842.16,68.44c1.62,0,2.44-3.63,1.3-9.4-3.76.75-5.38,3.58-4.68,6C839.27,66.68,841,68.46,842.16,68.44Z"/><path class="cls-5" d="M827,74.72c1.62,0,2.44-3.62,1.3-9.39-3.76.75-5.39,3.58-4.68,6C824.12,73,825.86,74.75,827,74.72Z"/><path class="cls-6" d="M830.68,57.37c1.44,0,2-3.44.71-9.14-3.32.56-4.65,3.26-3.9,5.62C828,55.52,829.65,57.33,830.68,57.37Z"/><path class="cls-5" d="M859.74,93.57c1.62,0,2.43-3.63,1.3-9.39-3.76.75-5.39,3.58-4.69,6C856.85,91.82,858.59,93.59,859.74,93.57Z"/><path class="cls-5" d="M887.42,82.56c1.62,0,2.44-3.63,1.3-9.4-3.76.75-5.38,3.58-4.68,6C884.53,80.8,886.28,82.58,887.42,82.56Z"/><path class="cls-5" d="M884,98.57c1.61,0,2.43-3.63,1.29-9.39-3.76.74-5.38,3.58-4.68,6C881.06,96.81,882.81,98.59,884,98.57Z"/><path class="cls-5" d="M868.8,104.86c1.62,0,2.44-3.63,1.3-9.4-3.76.75-5.39,3.58-4.68,6C865.91,103.1,867.65,104.88,868.8,104.86Z"/><path class="cls-6" d="M872.47,87.5c1.44,0,2-3.44.71-9.14-3.32.56-4.64,3.26-3.9,5.62C869.8,85.65,871.44,87.47,872.47,87.5Z"/><path class="cls-5" d="M856,62.88c1.62,0,2.44-3.63,1.3-9.39-3.76.75-5.39,3.58-4.69,6C853.06,61.13,854.8,62.9,856,62.88Z"/><path class="cls-5" d="M883.64,51.86c1.61,0,2.43-3.62,1.3-9.39-3.76.75-5.39,3.58-4.69,6C880.75,50.11,882.49,51.88,883.64,51.86Z"/><path class="cls-5" d="M880.17,67.88c1.61,0,2.43-3.63,1.3-9.4-3.76.75-5.39,3.58-4.69,6C877.28,66.12,879,67.9,880.17,67.88Z"/><path class="cls-5" d="M865,74.16c1.62,0,2.44-3.63,1.3-9.39-3.76.75-5.39,3.58-4.68,6C862.12,72.41,863.87,74.18,865,74.16Z"/><path class="cls-6" d="M868.68,56.81c1.45,0,2-3.45.72-9.14-3.33.56-4.65,3.26-3.91,5.62C866,55,867.65,56.77,868.68,56.81Z"/><path class="cls-11" d="M863,137.58c1.37-.13,2.3-2.81,1.7-7-3.23.78-4.79,3-4.35,4.66A3.19,3.19,0,0,0,863,137.58Z"/><path class="cls-12" d="M846.14,139.41c1.28-.31,2.61-2.09,2.81-4.49-3.12,1-4.94,2.61-4.84,3.56C844.18,139.15,845.23,139.63,846.14,139.41Z"/><path class="cls-5" d="M829.56,121.73c1.62,0,2.44-3.63,1.3-9.39-3.76.75-5.39,3.58-4.68,6C826.67,120,828.41,121.75,829.56,121.73Z"/><path class="cls-5" d="M857.25,110.72c1.62,0,2.43-3.63,1.3-9.4-3.76.75-5.39,3.58-4.69,6C854.36,109,856.1,110.74,857.25,110.72Z"/><path class="cls-5" d="M853.78,126.73c1.62,0,2.43-3.63,1.3-9.4-3.76.75-5.39,3.58-4.69,6C850.89,125,852.63,126.75,853.78,126.73Z"/><path class="cls-5" d="M838.63,133c1.61,0,2.43-3.62,1.29-9.39-3.75.75-5.38,3.58-4.68,6C835.73,131.26,837.48,133,838.63,133Z"/><path class="cls-6" d="M842.29,115.66c1.45,0,2-3.44.72-9.14-3.33.56-4.65,3.26-3.91,5.62C839.62,113.81,841.27,115.63,842.29,115.66Z"/><path class="cls-5" d="M898.45,95.13c1.62,0,2.44-3.63,1.3-9.4-3.76.75-5.38,3.58-4.68,6C895.56,93.37,897.31,95.15,898.45,95.13Z"/><path class="cls-13" d="M904.11,103.05c1.21,0,1.89-2.65,1.14-6.76-2.83.6-4.1,2.66-3.62,4.36C902,101.84,903.25,103.09,904.11,103.05Z"/><path class="cls-14" d="M907.29,89.91c1,.17,1-2.72-.39-7.67-2.19.17-2.83,2.33-2.1,4.4C905.31,88.1,906.59,89.79,907.29,89.91Z"/><path class="cls-5" d="M894.67,64.43c1.61,0,2.43-3.62,1.29-9.39-3.75.75-5.38,3.58-4.68,6C891.78,62.68,893.52,64.45,894.67,64.43Z"/><path class="cls-5" d="M903.73,75.72c1.62,0,2.44-3.63,1.3-9.4-3.76.75-5.39,3.58-4.68,6C900.84,74,902.58,75.74,903.73,75.72Z"/><path class="cls-5" d="M868.28,123.29c1.62,0,2.43-3.63,1.3-9.4-3.76.75-5.39,3.58-4.69,6C865.39,121.53,867.13,123.31,868.28,123.29Z"/><path class="cls-5" d="M896,112.27c1.61,0,2.43-3.63,1.29-9.39-3.75.74-5.38,3.58-4.68,6C893.08,110.51,894.82,112.29,896,112.27Z"/><path class="cls-15" d="M890.94,124.82c1.5-.29,2.88-2.64,2.82-6-3.61,1.09-5.6,3.11-5.36,4.46A2.3,2.3,0,0,0,890.94,124.82Z"/><path class="cls-16" d="M877.08,134c1.6-.07,2.51-3.46,1.55-8.83-3.73.81-5.42,3.5-4.79,5.71C874.28,132.43,876,134,877.08,134Z"/><path class="cls-6" d="M881,117.21c1.45.05,2-3.44.72-9.14-3.33.56-4.65,3.26-3.91,5.63C878.34,115.36,880,117.18,881,117.21Z"/><path class="cls-5" d="M817.83,110.33c1.62,0,2.43-3.63,1.3-9.4-3.76.75-5.39,3.58-4.69,6C814.94,108.57,816.68,110.35,817.83,110.33Z"/><path class="cls-17" d="M819.68,125.41c1.24-.08,2-2.65,1.35-6.66-2.93.66-4.29,2.71-3.84,4.36C817.51,124.28,818.79,125.46,819.68,125.41Z"/><path class="cls-18" d="M829.85,136.43c1.16-.13,2-2.31,1.61-5.64-2.76.71-4.14,2.49-3.8,3.85A2.44,2.44,0,0,0,829.85,136.43Z"/><path class="cls-18" d="M808.55,109.31c1.17-.13,2-2.32,1.62-5.65-2.76.71-4.14,2.5-3.81,3.86A2.48,2.48,0,0,0,808.55,109.31Z"/><path class="cls-5" d="M885.63,34.9c1.61,0,2.43-3.63,1.29-9.4-3.75.75-5.38,3.58-4.68,6C882.73,33.14,884.48,34.92,885.63,34.9Z"/><path class="cls-5" d="M895.52,48.56c1.61,0,2.43-3.62,1.29-9.39-3.75.75-5.38,3.58-4.68,6C892.63,46.81,894.37,48.59,895.52,48.56Z"/><path class="cls-19" d="M902.82,60.28c1.06,0,1.48-2.54.53-6.74a3.23,3.23,0,0,0-2.89,4.15C900.85,58.91,902.06,60.25,902.82,60.28Z"/><path class="cls-20" d="M802.74,86.76c1,0,1.39-2.4.49-6.36a3,3,0,0,0-2.71,3.91C800.89,85.47,802,86.73,802.74,86.76Z"/><path class="cls-4" d="M874.86,8.2c.83,0,1.16-2,.43-5.22A2.52,2.52,0,0,0,873,6.2C873.33,7.15,874.27,8.18,874.86,8.2Z"/><path class="cls-3" d="M1191.81,1.29c-20.28,26-34.8,64.54-23,91.45,7.62,17.39,24.35,25.66,25.38,26.16,21.27,10.16,48,4.17,62-7.64,26.4-22.2,21.88-76.51,6-110Z"/><path class="cls-4" d="M1188.58,11.3c.82.14,1.44-1.78,1.21-5.1a2.54,2.54,0,0,0-2.72,2.86C1187.22,10,1188,11.2,1188.58,11.3Z"/><path class="cls-5" d="M1210.8,1.29c.51,1.46,1.66,2.87,2.61,3s1.75-1,2.24-3Z"/><path class="cls-5" d="M1207.58,19.62c1.6.2,3-3.24,2.69-9.11-3.83.2-5.86,2.76-5.53,5.22C1205,17.46,1206.44,19.47,1207.58,19.62Z"/><path class="cls-5" d="M1191.65,23.64c1.6.2,2.95-3.24,2.69-9.11-3.83.2-5.86,2.76-5.53,5.22C1189.05,21.48,1190.51,23.49,1191.65,23.64Z"/><path class="cls-6" d="M1195.34,1.29a4.21,4.21,0,0,0-.09,1.77c.26,1.72,1.62,3.76,2.63,3.94s2-1.9,2.15-5.71Z"/><path class="cls-5" d="M1178.49,58.66c1.61.21,3-3.23,2.69-9.1-3.83.2-5.86,2.76-5.52,5.22C1175.9,56.51,1177.35,58.52,1178.49,58.66Z"/><path class="cls-5" d="M1174.44,74.76c1.6.2,3-3.24,2.69-9.1-3.83.19-5.87,2.76-5.53,5.21C1171.84,72.6,1173.3,74.61,1174.44,74.76Z"/><path class="cls-8" d="M1180.86,27.35c1.15.29,1.88-2.78,1.33-8.16-2.69-.05-4,2.17-3.57,4.44C1178.9,25.22,1180.05,27.15,1180.86,27.35Z"/><path class="cls-9" d="M1175.65,42.71c1.21.25,2.08-2.76,1.64-8a3.74,3.74,0,0,0-3.93,4.42C1173.61,40.69,1174.79,42.53,1175.65,42.71Z"/><path class="cls-5" d="M1222.44,18.31c1.6.21,3-3.23,2.69-9.1-3.83.2-5.87,2.76-5.53,5.22C1219.84,16.16,1221.3,18.17,1222.44,18.31Z"/><path class="cls-5" d="M1251.47,11.43c1.61.21,3-3.23,2.69-9.1-3.83.19-5.86,2.76-5.52,5.22C1248.87,9.28,1250.33,11.29,1251.47,11.43Z"/><path class="cls-5" d="M1245.64,26.77c1.6.2,2.95-3.24,2.69-9.11-3.83.2-5.86,2.76-5.52,5.22C1243,24.61,1244.5,26.62,1245.64,26.77Z"/><path class="cls-5" d="M1229.71,30.79c1.6.2,3-3.24,2.69-9.11-3.83.2-5.86,2.76-5.52,5.22C1227.11,28.63,1228.57,30.64,1229.71,30.79Z"/><path class="cls-6" d="M1235.94,14.15c1.42.26,2.5-3.11,2.08-8.93-3.38.07-5.09,2.54-4.71,5C1233.58,11.93,1234.93,14,1235.94,14.15Z"/><path class="cls-5" d="M1187.52,72.69c1.6.21,3-3.23,2.69-9.1-3.83.2-5.86,2.76-5.53,5.22C1184.92,70.54,1186.38,72.55,1187.52,72.69Z"/><path class="cls-5" d="M1216.55,65.81c1.61.21,3-3.23,2.7-9.1-3.83.2-5.87,2.76-5.53,5.22C1214,63.66,1215.42,65.67,1216.55,65.81Z"/><path class="cls-5" d="M1210.72,81.15c1.61.2,3-3.24,2.69-9.1-3.83.19-5.86,2.76-5.52,5.22C1208.13,79,1209.58,81,1210.72,81.15Z"/><path class="cls-5" d="M1194.79,85.17c1.61.2,3-3.24,2.69-9.1-3.83.19-5.86,2.76-5.52,5.22C1192.2,83,1193.65,85,1194.79,85.17Z"/><path class="cls-6" d="M1201,68.53c1.42.26,2.5-3.11,2.08-8.93-3.38.07-5.09,2.55-4.71,5C1198.66,66.32,1200,68.35,1201,68.53Z"/><path class="cls-5" d="M1188.37,41.79c1.6.2,3-3.24,2.69-9.1-3.83.19-5.86,2.76-5.52,5.21C1185.77,39.63,1187.23,41.64,1188.37,41.79Z"/><path class="cls-5" d="M1217.41,34.91c1.6.2,2.95-3.24,2.69-9.11-3.83.2-5.87,2.76-5.53,5.22C1214.81,32.75,1216.27,34.76,1217.41,34.91Z"/><path class="cls-5" d="M1211.58,50.24c1.6.21,3-3.23,2.69-9.1-3.83.19-5.87,2.76-5.53,5.22C1209,48.09,1210.44,50.1,1211.58,50.24Z"/><path class="cls-5" d="M1195.65,54.26c1.6.21,2.95-3.23,2.69-9.1-3.83.2-5.87,2.76-5.53,5.22C1193.05,52.11,1194.51,54.12,1195.65,54.26Z"/><path class="cls-6" d="M1201.87,37.63c1.43.25,2.5-3.12,2.08-8.94-3.37.07-5.09,2.55-4.71,5C1199.51,35.41,1200.86,37.45,1201.87,37.63Z"/><path class="cls-5" d="M1225.19,77.65c1.6.21,3-3.23,2.69-9.1-3.83.19-5.86,2.76-5.52,5.22C1222.59,75.5,1224.05,77.51,1225.19,77.65Z"/><path class="cls-5" d="M1254.23,70.77c1.6.21,3-3.24,2.69-9.1-3.83.19-5.87,2.76-5.53,5.22C1251.63,68.62,1253.09,70.62,1254.23,70.77Z"/><path class="cls-5" d="M1248.39,86.1c1.61.21,3-3.23,2.7-9.1-3.83.2-5.87,2.76-5.53,5.22C1245.8,84,1247.26,86,1248.39,86.1Z"/><path class="cls-5" d="M1232.46,90.13c1.61.2,3-3.24,2.7-9.11-3.83.2-5.87,2.76-5.53,5.22C1229.87,88,1231.33,90,1232.46,90.13Z"/><path class="cls-6" d="M1238.69,73.49c1.43.25,2.5-3.11,2.08-8.94-3.37.08-5.09,2.55-4.71,5C1236.33,71.27,1237.68,73.31,1238.69,73.49Z"/><path class="cls-5" d="M1226,46.74c1.61.21,3-3.23,2.69-9.1-3.83.2-5.86,2.76-5.52,5.22C1223.45,44.59,1224.9,46.6,1226,46.74Z"/><path class="cls-5" d="M1255.08,39.86c1.6.21,3-3.23,2.69-9.1-3.83.2-5.87,2.76-5.53,5.22C1252.48,37.71,1253.94,39.72,1255.08,39.86Z"/><path class="cls-5" d="M1249.25,55.2c1.6.2,3-3.24,2.69-9.1-3.83.19-5.87,2.76-5.53,5.21C1246.65,53,1248.11,55.05,1249.25,55.2Z"/><path class="cls-5" d="M1233.32,59.22c1.6.2,3-3.24,2.69-9.1-3.83.19-5.87,2.76-5.53,5.22C1230.72,57.06,1232.18,59.07,1233.32,59.22Z"/><path class="cls-6" d="M1239.54,42.58c1.43.26,2.5-3.11,2.08-8.93-3.37.07-5.08,2.55-4.71,5C1237.18,40.37,1238.53,42.4,1239.54,42.58Z"/><path class="cls-11" d="M1221.8,121.64c1.38.08,2.7-2.44,2.73-6.63-3.31.31-5.18,2.23-5,4C1219.66,120.21,1220.83,121.59,1221.8,121.64Z"/><path class="cls-12" d="M1204.87,121c1.32-.12,2.9-1.69,3.45-4-3.23.56-5.28,1.86-5.31,2.81C1203,120.47,1203.94,121.1,1204.87,121Z"/><path class="cls-5" d="M1191.13,101.13c1.6.2,2.95-3.24,2.69-9.11-3.83.2-5.87,2.76-5.53,5.22C1188.53,99,1190,101,1191.13,101.13Z"/><path class="cls-5" d="M1220.16,94.25c1.61.2,2.95-3.24,2.69-9.11-3.83.2-5.86,2.76-5.52,5.22C1217.56,92.09,1219,94.1,1220.16,94.25Z"/><path class="cls-5" d="M1214.33,109.58c1.6.21,3-3.24,2.69-9.1-3.83.19-5.86,2.76-5.52,5.22C1211.73,107.43,1213.19,109.43,1214.33,109.58Z"/><path class="cls-5" d="M1198.4,113.6c1.6.21,2.95-3.24,2.69-9.1-3.83.19-5.86,2.76-5.52,5.22C1195.8,111.45,1197.26,113.45,1198.4,113.6Z"/><path class="cls-6" d="M1204.63,97c1.42.26,2.5-3.11,2.07-8.93-3.37.07-5.08,2.55-4.7,5C1202.26,94.75,1203.62,96.78,1204.63,97Z"/><path class="cls-5" d="M1263.25,84.8c1.61.21,3-3.23,2.69-9.1-3.83.2-5.86,2.76-5.52,5.22C1260.66,82.65,1262.11,84.66,1263.25,84.8Z"/><path class="cls-13" d="M1267.66,93.46c1.2.13,2.27-2.34,2.14-6.52-2.89.18-4.46,2-4.23,3.79C1265.72,92,1266.8,93.37,1267.66,93.46Z"/><path class="cls-14" d="M1272.77,80.93c1,.31,1.43-2.55.77-7.64-2.2-.16-3.15,1.89-2.74,4C1271.09,78.85,1272.1,80.7,1272.77,80.93Z"/><path class="cls-5" d="M1264.1,53.9c1.61.2,3-3.24,2.69-9.11-3.82.2-5.86,2.76-5.52,5.22C1261.51,51.74,1263,53.75,1264.1,53.9Z"/><path class="cls-5" d="M1271.38,66.37c1.6.21,2.95-3.24,2.69-9.1-3.83.19-5.87,2.76-5.53,5.22C1268.78,64.22,1270.24,66.22,1271.38,66.37Z"/><path class="cls-5" d="M1229.19,108.28c1.6.2,3-3.24,2.69-9.11-3.83.2-5.87,2.76-5.53,5.22C1226.59,106.12,1228.05,108.13,1229.19,108.28Z"/><path class="cls-5" d="M1258.22,101.4c1.61.2,3-3.24,2.69-9.11-3.83.2-5.86,2.76-5.52,5.22C1255.63,99.24,1257.08,101.25,1258.22,101.4Z"/><path class="cls-15" d="M1251.37,113.08c1.53-.07,3.24-2.2,3.69-5.53-3.73.55-6,2.26-6,3.63A2.27,2.27,0,0,0,1251.37,113.08Z"/><path class="cls-16" d="M1236.29,120.14c1.59.16,3-3.06,2.86-8.5-3.81.25-5.89,2.67-5.6,5C1233.75,118.19,1235.16,120,1236.29,120.14Z"/><path class="cls-6" d="M1242.69,104.12c1.42.25,2.5-3.12,2.08-8.94-3.38.07-5.09,2.55-4.71,5C1240.33,101.9,1241.68,103.94,1242.69,104.12Z"/><path class="cls-5" d="M1181.23,88.14c1.6.21,3-3.23,2.69-9.1-3.83.2-5.86,2.76-5.52,5.22C1178.63,86,1180.09,88,1181.23,88.14Z"/><path class="cls-17" d="M1180.8,103.33c1.24.1,2.38-2.32,2.33-6.39-3,.23-4.64,2.06-4.44,3.76C1178.83,101.9,1179.91,103.25,1180.8,103.33Z"/><path class="cls-18" d="M1189.2,115.71c1.18,0,2.35-2,2.45-5.35-2.84.3-4.47,1.87-4.34,3.26A2.45,2.45,0,0,0,1189.2,115.71Z"/><path class="cls-18" d="M1172.21,85.79c1.17,0,2.34-2,2.44-5.35-2.84.3-4.47,1.87-4.34,3.26A2.45,2.45,0,0,0,1172.21,85.79Z"/><path class="cls-5" d="M1259.59,23.37c1.6.21,3-3.24,2.69-9.1-3.83.19-5.87,2.76-5.53,5.22C1257,21.22,1258.45,23.22,1259.59,23.37Z"/><path class="cls-5" d="M1267.32,38.32c1.6.21,3-3.23,2.69-9.1-3.83.2-5.86,2.76-5.52,5.22C1264.72,36.17,1266.18,38.18,1267.32,38.32Z"/><path class="cls-19" d="M1272.79,51c1,.19,1.85-2.29,1.54-6.58-2.5,0-3.76,1.88-3.48,3.68C1271,49.33,1272,50.83,1272.79,51Z"/><path class="cls-20" d="M1169.84,62.64c1,.18,1.73-2.16,1.44-6.22A3.06,3.06,0,0,0,1168,59.9C1168.2,61.1,1169.14,62.52,1169.84,62.64Z"/></g></g></svg>