<svg xmlns="http://www.w3.org/2000/svg" viewBox="0 0 348.54 379.28"><defs><style>.cls-1,.cls-2,.cls-25,.cls-26{fill:none;}.cls-1,.cls-2,.cls-21,.cls-22,.cls-23,.cls-25,.cls-26{stroke:#000;}.cls-1,.cls-10,.cls-11,.cls-12,.cls-13,.cls-14,.cls-15,.cls-16,.cls-17,.cls-18,.cls-19,.cls-2,.cls-20,.cls-21,.cls-22,.cls-23,.cls-24,.cls-25,.cls-26,.cls-3,.cls-4,.cls-5,.cls-6,.cls-7,.cls-8,.cls-9{stroke-miterlimit:10;}.cls-1{stroke-width:5.58px;}.cls-2{stroke-width:5.62px;}.cls-3{fill:#c2000c;stroke-width:5.1px;}.cls-10,.cls-11,.cls-12,.cls-13,.cls-14,.cls-15,.cls-16,.cls-17,.cls-18,.cls-19,.cls-20,.cls-3,.cls-4,.cls-5,.cls-6,.cls-7,.cls-8,.cls-9{stroke:#603813;}.cls-10,.cls-11,.cls-12,.cls-13,.cls-14,.cls-15,.cls-16,.cls-17,.cls-18,.cls-19,.cls-20,.cls-4,.cls-5,.cls-6,.cls-7,.cls-8,.cls-9{fill:#ffffb3;}.cls-4{stroke-width:2.26px;}.cls-5{stroke-width:4.21px;}.cls-6{stroke-width:3.94px;}.cls-7{stroke-width:3.93px;}.cls-8{stroke-width:3.37px;}.cls-9{stroke-width:3.44px;}.cls-10{stroke-width:3.52px;}.cls-11{stroke-width:2.74px;}.cls-12{stroke-width:3.31px;}.cls-13{stroke-width:2.39px;}.cls-14{stroke-width:3.09px;}.cls-15{stroke-width:2.95px;}.cls-16{stroke-width:3.1px;}.cls-17{stroke-width:4.05px;}.cls-18{stroke-width:3.1px;}.cls-19{stroke-width:2.73px;}.cls-20{stroke-width:2.91px;}.cls-21{fill:#fff;}.cls-21,.cls-22{stroke-width:2.78px;}.cls-23{stroke-width:1.39px;}.cls-24{fill:#39b54a;stroke:#006837;}.cls-24,.cls-25{stroke-width:5px;}.cls-26{stroke-width:5.54px;}</style></defs><g id="Camada_2" data-name="Camada 2"><g id="Camada_7" data-name="Camada 7"><path class="cls-1" d="M164.75,324.08c8.12-11-19.62,22.95-15.21,49h0c-16.23,8-45.65-1-32.46,2"/><path class="cls-2" d="M169.23,322.56c-8.21-11,19.83,22.95,15.38,49h0c16.41,8,46.15-1,32.82,2"/><path class="cls-3" d="M74,312C20.8,230.93,108.52,62.67,172.44,63.68c66.1,1,148.79,183.75,81.66,257.07-24.61,26.89-76.2,46.52-121.7,33.58C130.2,353.7,94.33,343,74,312Z"/><path class="cls-4" d="M89.73,151.15c1.68,0,2.36-3.85.93-10.12-3.87.68-5.44,3.69-4.6,6.29C86.65,149.15,88.54,151.13,89.73,151.15Z"/><path class="cls-5" d="M137.31,130.12c3.26-.09,4.95-7.09,2.71-18.24-7.59,1.55-10.91,7.08-9.51,11.68C131.49,126.8,135,130.19,137.31,130.12Z"/><path class="cls-5" d="M130.14,161.25c3.27-.1,5-7.09,2.72-18.24-7.6,1.54-10.92,7.07-9.52,11.68C124.32,157.92,127.82,161.32,130.14,161.25Z"/><path class="cls-5" d="M99.48,173.81c3.26-.09,5-7.09,2.71-18.24-7.59,1.55-10.91,7.08-9.51,11.68C93.66,170.49,97.16,173.88,99.48,173.81Z"/><path class="cls-6" d="M107.06,140.08c2.92,0,4.08-6.73,1.53-17.74-6.72,1.17-9.42,6.43-7.94,11C101.68,136.56,105,140,107.06,140.08Z"/><path class="cls-7" d="M123,110.19c3.16.75,7.42-4.48,9.49-14.07-7.85-.69-13.12,2.94-13.52,7C118.65,106,120.71,109.65,123,110.19Z"/><path class="cls-5" d="M83.44,244.86c3.26-.1,5-7.09,2.71-18.24-7.6,1.54-10.91,7.07-9.52,11.68C77.62,241.53,81.12,244.93,83.44,244.86Z"/><path class="cls-5" d="M80,276.9c3.27-.1,4.95-7.09,2.71-18.24-7.59,1.54-10.91,7.07-9.51,11.68C74.22,273.57,77.72,277,80,276.9Z"/><path class="cls-8" d="M79,184.22c2.37.2,2.94-5.89.25-16-5.39.72-7.28,5.36-5.83,9.58C74.45,180.75,77.32,184.08,79,184.22Z"/><path class="cls-9" d="M73.08,215.21c2.5.1,3.35-5.92.94-15.8-5.73.92-7.93,5.56-6.57,9.66C68.41,212,71.31,215.13,73.08,215.21Z"/><path class="cls-5" d="M159.46,154.22c3.26-.1,4.95-7.1,2.71-18.25-7.6,1.55-10.91,7.08-9.52,11.68C153.64,150.89,157.14,154.28,159.46,154.22Z"/><path class="cls-5" d="M215.48,132.17c3.26-.1,5-7.09,2.71-18.24-7.6,1.54-10.91,7.07-9.51,11.68C209.66,128.84,213.16,132.24,215.48,132.17Z"/><path class="cls-5" d="M208.31,163.3c3.27-.1,4.95-7.1,2.72-18.24-7.6,1.54-10.92,7.07-9.52,11.67C202.49,160,206,163.37,208.31,163.3Z"/><path class="cls-5" d="M177.65,175.86c3.26-.1,4.95-7.09,2.71-18.24-7.59,1.54-10.91,7.07-9.51,11.68C171.83,172.53,175.33,175.93,177.65,175.86Z"/><path class="cls-6" d="M185.23,142.12c2.91.06,4.08-6.72,1.53-17.73-6.72,1.17-9.42,6.43-7.94,11C179.85,138.6,183.15,142.09,185.23,142.12Z"/><path class="cls-5" d="M152.11,94.81c3.27-.09,5-7.09,2.72-18.24-7.6,1.55-10.92,7.08-9.52,11.68C146.29,91.49,149.79,94.88,152.11,94.81Z"/><path class="cls-10" d="M196.45,110c2.82-.17,4.48-5.89,2.88-14.88-6.59,1.46-9.61,6-8.55,9.73C191.54,107.44,194.45,110.11,196.45,110Z"/><path class="cls-5" d="M170.3,116.46c3.27-.1,5-7.09,2.72-18.24-7.6,1.54-10.92,7.07-9.52,11.68C164.48,113.13,168,116.53,170.3,116.46Z"/><path class="cls-11" d="M177.05,83.13c2,0,2.83-4.67,1-12.34-4.67.81-6.54,4.47-5.51,7.65C173.32,80.68,175.61,83.1,177.05,83.13Z"/><path class="cls-5" d="M105.58,269c3.27-.1,5-7.09,2.72-18.24-7.6,1.55-10.92,7.08-9.52,11.68C99.76,265.62,103.26,269,105.58,269Z"/><path class="cls-5" d="M161.6,246.91c3.27-.1,5-7.1,2.72-18.24-7.6,1.54-10.91,7.07-9.52,11.67C155.78,243.58,159.29,247,161.6,246.91Z"/><path class="cls-5" d="M154.44,278c3.27-.09,4.95-7.09,2.71-18.24-7.59,1.55-10.91,7.08-9.51,11.68C148.62,274.71,152.12,278.1,154.44,278Z"/><path class="cls-5" d="M123.78,290.6c3.26-.1,4.95-7.1,2.71-18.24-7.6,1.54-10.91,7.07-9.52,11.67C118,287.27,121.46,290.67,123.78,290.6Z"/><path class="cls-6" d="M131.35,256.86c2.92.05,4.09-6.72,1.54-17.73-6.72,1.17-9.42,6.43-7.95,11C126,253.34,129.28,256.82,131.35,256.86Z"/><path class="cls-5" d="M98.24,209.55c3.27-.1,5-7.09,2.71-18.24C93.36,192.86,90,198.38,91.44,203,92.42,206.22,95.92,209.62,98.24,209.55Z"/><path class="cls-5" d="M154.26,187.51c3.27-.1,5-7.1,2.71-18.24-7.59,1.54-10.91,7.07-9.51,11.67C148.44,184.18,151.94,187.58,154.26,187.51Z"/><path class="cls-5" d="M147.09,218.63c3.27-.09,5-7.09,2.72-18.24-7.6,1.55-10.91,7.08-9.52,11.68C141.27,215.31,144.78,218.7,147.09,218.63Z"/><path class="cls-5" d="M116.43,231.2c3.27-.1,4.95-7.1,2.71-18.24-7.59,1.54-10.91,7.07-9.51,11.67C110.61,227.87,114.11,231.27,116.43,231.2Z"/><path class="cls-6" d="M124,197.46c2.92,0,4.09-6.72,1.53-17.74-6.72,1.17-9.42,6.44-7.94,11C118.64,193.94,121.94,197.42,124,197.46Z"/><path class="cls-5" d="M182.33,266.92c3.27-.1,5-7.1,2.72-18.24-7.6,1.54-10.92,7.07-9.52,11.67C176.51,263.59,180,267,182.33,266.92Z"/><path class="cls-5" d="M238.35,244.87c3.27-.09,5-7.09,2.72-18.24-7.6,1.55-10.92,7.08-9.52,11.68C232.53,241.54,236,244.94,238.35,244.87Z"/><path class="cls-5" d="M231.19,276c3.26-.1,4.95-7.1,2.71-18.24-7.6,1.54-10.91,7.07-9.52,11.67C225.37,272.67,228.87,276.07,231.19,276Z"/><path class="cls-5" d="M200.52,288.56c3.27-.09,5-7.09,2.72-18.24-7.6,1.55-10.92,7.08-9.52,11.68C194.7,285.23,198.2,288.63,200.52,288.56Z"/><path class="cls-6" d="M208.1,254.83c2.92,0,4.09-6.73,1.54-17.74-6.73,1.17-9.42,6.43-7.95,11C202.73,251.3,206,254.79,208.1,254.83Z"/><path class="cls-5" d="M175,207.52c3.26-.1,4.95-7.1,2.71-18.24-7.59,1.54-10.91,7.07-9.51,11.67C169.17,204.19,172.67,207.59,175,207.52Z"/><path class="cls-5" d="M231,185.47c3.27-.1,5-7.09,2.71-18.24-7.59,1.55-10.91,7.07-9.51,11.68C225.19,182.14,228.69,185.54,231,185.47Z"/><path class="cls-5" d="M223.84,216.6c3.27-.1,5-7.1,2.72-18.24C219,199.9,215.64,205.43,217,210,218,213.27,221.52,216.67,223.84,216.6Z"/><path class="cls-5" d="M193.18,229.16c3.27-.1,4.95-7.09,2.71-18.24-7.59,1.55-10.91,7.08-9.51,11.68C187.36,225.83,190.86,229.23,193.18,229.16Z"/><path class="cls-6" d="M200.76,195.43c2.92,0,4.08-6.73,1.53-17.74-6.72,1.17-9.42,6.43-7.94,11C195.39,191.9,198.69,195.39,200.76,195.43Z"/><path class="cls-12" d="M188.44,352.13c2.77-.27,4.67-5.5,3.51-13.52-6.53,1.59-9.71,5.85-8.83,9.13C183.73,350.05,186.47,352.33,188.44,352.13Z"/><path class="cls-13" d="M154.42,356.11c2.59-.63,5.3-4.11,5.71-8.77-6.3,2.07-10,5.18-9.8,7C150.47,355.65,152.57,356.56,154.42,356.11Z"/><path class="cls-5" d="M121.12,322.25c3.26-.09,4.95-7.09,2.71-18.24-7.6,1.55-10.91,7.08-9.52,11.68C115.3,318.93,118.8,322.32,121.12,322.25Z"/><path class="cls-5" d="M177.14,300.21c3.26-.1,5-7.1,2.71-18.24-7.6,1.54-10.91,7.07-9.52,11.67C171.32,296.88,174.82,300.28,177.14,300.21Z"/><path class="cls-5" d="M170,331.34c3.27-.1,4.95-7.1,2.71-18.25-7.59,1.55-10.91,7.08-9.51,11.68C164.15,328,167.65,331.4,170,331.34Z"/><path class="cls-5" d="M139.31,343.9c3.26-.1,4.95-7.1,2.71-18.24-7.6,1.54-10.91,7.07-9.52,11.68C133.49,340.57,137,344,139.31,343.9Z"/><path class="cls-6" d="M146.88,310.16c2.92,0,4.09-6.72,1.54-17.73-6.72,1.17-9.42,6.43-7.94,11C141.51,306.64,144.81,310.13,146.88,310.16Z"/><path class="cls-5" d="M260.5,269c3.27-.09,4.95-7.09,2.72-18.24-7.6,1.55-10.92,7.08-9.52,11.68C254.68,265.64,258.18,269,260.5,269Z"/><path class="cls-14" d="M271.84,284.19c2.45-.13,3.85-5.18,2.38-13.14-5.73,1.24-8.32,5.26-7.36,8.54C267.54,281.9,270.1,284.28,271.84,284.19Z"/><path class="cls-15" d="M278.4,258.64c2,.31,2.1-5.32-.71-14.86-4.44.38-5.74,4.58-4.29,8.58C274.42,255.17,277,258.42,278.4,258.64Z"/><path class="cls-5" d="M253.16,209.56c3.26-.09,5-7.09,2.71-18.24-7.6,1.55-10.91,7.08-9.52,11.68C247.34,206.24,250.84,209.63,253.16,209.56Z"/><path class="cls-5" d="M271.35,231.21c3.26-.1,4.95-7.1,2.71-18.24-7.59,1.54-10.91,7.07-9.51,11.67C265.53,227.88,269,231.28,271.35,231.21Z"/><path class="cls-5" d="M199.28,324.3c3.27-.1,5-7.09,2.72-18.24-7.6,1.54-10.91,7.07-9.52,11.68C193.46,321,197,324.37,199.28,324.3Z"/><path class="cls-5" d="M255.31,302.26c3.26-.1,4.95-7.1,2.71-18.25-7.6,1.55-10.91,7.08-9.52,11.68C249.49,298.93,253,302.32,255.31,302.26Z"/><path class="cls-16" d="M245,326.71c3-.59,5.84-5.2,5.75-11.72-7.29,2.2-11.34,6.16-10.86,8.78C240.25,325.61,242.87,327.13,245,326.71Z"/><path class="cls-17" d="M217,344.83c3.23-.18,5.1-6.77,3.22-17.15-7.55,1.65-11,6.92-9.74,11.19C211.31,341.88,214.67,345,217,344.83Z"/><path class="cls-6" d="M225.05,312.21c2.92.05,4.09-6.72,1.54-17.74-6.72,1.17-9.42,6.44-8,11C219.68,308.69,223,312.17,225.05,312.21Z"/><path class="cls-5" d="M97.54,300.44c3.26-.1,4.95-7.1,2.71-18.25-7.6,1.55-10.91,7.08-9.52,11.68C91.72,297.11,95.22,300.51,97.54,300.44Z"/><path class="cls-18" d="M101.12,329.62c2.52-.18,4.09-5.17,2.79-12.94-5.91,1.36-8.68,5.37-7.78,8.56C96.76,327.49,99.33,329.75,101.12,329.62Z"/><path class="cls-19" d="M121.54,350.75c2.36-.29,4.1-4.54,3.32-11-5.58,1.44-8.38,4.94-7.72,7.56C117.6,349.18,119.87,351,121.54,350.75Z"/><path class="cls-19" d="M78.81,298.69c2.36-.28,4.1-4.53,3.32-11-5.58,1.43-8.38,4.93-7.72,7.56C74.87,297.13,77.14,298.89,78.81,298.69Z"/><path class="cls-5" d="M235.19,152.53c3.27-.09,5-7.09,2.72-18.24-7.6,1.55-10.92,7.08-9.52,11.68C229.37,149.2,232.87,152.6,235.19,152.53Z"/><path class="cls-5" d="M255,178.78c3.27-.1,5-7.09,2.71-18.24-7.59,1.54-10.91,7.07-9.51,11.68C249.21,175.45,252.71,178.85,255,178.78Z"/><path class="cls-20" d="M269.66,201.3c2.15,0,3-5,1.14-13.08-5,.87-7,4.75-5.87,8.12C265.69,198.71,268.13,201.27,269.66,201.3Z"/><path class="cls-11" d="M67.3,255.12c2,0,2.83-4.67,1-12.34-4.66.81-6.53,4.47-5.5,7.65C63.57,252.67,65.86,255.1,67.3,255.12Z"/><path class="cls-4" d="M213.71,101.05c1.68,0,2.36-3.84.93-10.12-3.87.68-5.44,3.69-4.6,6.29C210.63,99.05,212.52,101,213.71,101.05Z"/><path class="cls-4" d="M197.18,84.6c1.68,0,2.37-3.84.93-10.12-3.87.68-5.43,3.69-4.6,6.29C194.1,82.61,196,84.59,197.18,84.6Z"/><path class="cls-21" d="M114,160.43a62.35,62.35,0,0,0-11,28.91c-1.2,11.76,1.15,25,17.57,25.71,29.85,1.3,36.94-42,33.7-53.52-6.22-22.06-21.08-17.8-28.39-13.92C122.06,149.65,117.59,155.23,114,160.43Z"/><path class="cls-22" d="M128.2,210.85c22.59,5.53,40.36-51.69,17.93-61.24C129.75,142.64,105.6,205.33,128.2,210.85Z"/><path class="cls-21" d="M227.38,160.18a65.52,65.52,0,0,1,10.15,28.91c1.11,11.76-1.07,25-16.26,25.71-27.62,1.31-34.17-42-31.18-53.52,5.76-22.06,19.5-17.79,26.26-13.92C219.93,149.4,224.07,155,227.38,160.18Z"/><path class="cls-23" d="M214.25,210.6c-20.9,5.53-37.34-51.69-16.59-61.23C212.82,142.39,235.15,205.08,214.25,210.6Z"/><path d="M154.75,212.63a19.42,19.42,0,0,0,1.84,6.82,15.33,15.33,0,0,0,4,5.11,18.27,18.27,0,0,0,11.82,4,21.08,21.08,0,0,0,12-4.18,13.5,13.5,0,0,0,4.09-4.95,13.86,13.86,0,0,0,1.15-6.83,11.6,11.6,0,0,1,1.19,7.55,14.06,14.06,0,0,1-3.76,7.12,19.91,19.91,0,0,1-6.65,4.55,21.56,21.56,0,0,1-7.91,1.73,19.27,19.27,0,0,1-14.67-6.23,15.32,15.32,0,0,1-3.63-7.13A14.61,14.61,0,0,1,154.75,212.63Z"/><path class="cls-24" d="M172.27,59.58s8-3.15,10-14.07a55,55,0,0,0,0-19.72c-.7-2.73-12.56-22.28,7-23.21,21-1,25,8,25,8S190.1,39,194.69,46.79s10.58,16.79,10.58,16.79"/><path class="cls-24" d="M90.36,133.34c9.91-18.76,58.47-38.25,58.47-38.25s-10.12,39.34,3.66,51.91,18.81,15,18.81,15S156,137.72,158.13,129.15s4-31.56,15.09-34.06,23.61,61,23.61,61,8.15-32.2,9.53-53.55c.91-14-4.09-21-4.09-21s31,40,26,65c-5,24.8-4,22-4,22,24-46,36-22,32-33-.68-1.88-7.79-25.2-18.39-35.1C216,80,210.11,65,204.17,62.51c-11.35-4.82-21.84-3.81-30.9-2.93s-20.46,5.59-43,15A102.72,102.72,0,0,0,104,89.83c-3.2,2.48-6.32,6.13-10.1,12.74C84.25,119.36,90.36,133.34,90.36,133.34Z"/><path class="cls-25" d="M273.45,242.55c-8.18,7,52.82-44.4,52.82-44.4V178.08"/><path class="cls-26" d="M344.54,193.41l-19,5.05"/><path class="cls-25" d="M75.09,244.61c8.18-7-52.82,44.4-52.82,44.4v20.07"/><path class="cls-26" d="M4,293.75l19-5.05"/></g></g></svg>